<svg width="25" height="24" viewBox="0 0 25 24" fill="none" xmlns="http://www.w3.org/2000/svg">
<path fill-rule="evenodd" clip-rule="evenodd" d="M22.333 12C22.333 17.5228 17.8559 22 12.333 22C6.81016 22 2.33301 17.5228 2.33301 12C2.33301 6.47715 6.81016 2 12.333 2C17.8559 2 22.333 6.47715 22.333 12ZM12.333 7.25C12.7472 7.25 13.083 7.58579 13.083 8V11.25H16.333C16.7472 11.25 17.083 11.5858 17.083 12C17.083 12.4142 16.7472 12.75 16.333 12.75H13.083V16C13.083 16.4142 12.7472 16.75 12.333 16.75C11.9188 16.75 11.583 16.4142 11.583 16V12.75H8.33301C7.91879 12.75 7.58301 12.4142 7.58301 12C7.58301 11.5858 7.91879 11.25 8.33301 11.25H11.583V8C11.583 7.58579 11.9188 7.25 12.333 7.25Z" fill="#4D4CFF"/>
</svg>
