<svg width="18" height="18" viewBox="0 0 18 18" fill="none" xmlns="http://www.w3.org/2000/svg">
<g clip-path="url(#clip0_8303_890)">
<path d="M8.75 0.5C4.05563 0.5 0.25 4.30563 0.25 9C0.25 13.6944 4.05563 17.5 8.75 17.5C13.4444 17.5 17.25 13.6944 17.25 9C17.2448 4.30786 13.4421 0.505242 8.75 0.5ZM9.05338 2.95051L12.0083 1.76933C12.3437 1.9211 12.6681 2.09597 12.9792 2.29269L12.987 2.29754C13.2928 2.49125 13.585 2.70554 13.8616 2.93893L13.8854 2.95965C14.0094 3.06531 14.1301 3.1747 14.2475 3.28768C14.2623 3.3022 14.2778 3.31601 14.2926 3.33085C14.4155 3.4509 14.5347 3.57472 14.6499 3.70216C14.6595 3.71296 14.6686 3.7243 14.6781 3.7351C14.7793 3.8484 14.8765 3.9657 14.9709 4.08498C14.9936 4.11331 15.0163 4.14168 15.0383 4.17005C15.1406 4.30258 15.2397 4.43745 15.3332 4.57664L14.7441 7.08074L11.8459 8.0469L9.05409 5.81307L9.05338 2.95051ZM2.46145 4.17168C2.48345 4.14335 2.50586 4.11501 2.52857 4.08675C2.62171 3.96862 2.71817 3.85315 2.81785 3.74048C2.82865 3.72858 2.8386 3.7164 2.84926 3.7045C2.96373 3.57685 3.08243 3.45306 3.20517 3.33333C3.2193 3.31952 3.23339 3.305 3.2482 3.29225C3.36459 3.17999 3.48431 3.07125 3.60722 2.96617L3.63555 2.94237C3.90973 2.7107 4.19917 2.49772 4.50191 2.30487L4.51296 2.29779C4.82226 2.10152 5.14474 1.92685 5.4781 1.775L8.44662 2.95051V5.81222L5.65465 8.0457L2.75644 7.0813L2.16735 4.5772C2.26127 4.43909 2.35935 4.30386 2.46145 4.17168ZM2.12004 13.3478C2.03667 13.2207 1.957 13.0913 1.88111 12.9596L1.8627 12.9278C1.78717 12.7967 1.71565 12.6633 1.64825 12.5278L1.64591 12.5236C1.50394 12.2386 1.37934 11.9452 1.2728 11.6452V11.6424C1.22244 11.5007 1.1765 11.3556 1.13404 11.2097L1.11866 11.1558C1.07964 11.0182 1.0444 10.8795 1.01298 10.74C1.01022 10.7263 1.00675 10.7133 1.00399 10.6997C0.934411 10.3832 0.884415 10.0627 0.854279 9.74003L2.58403 7.6644L5.4622 8.6237L6.29754 11.9648L4.925 13.7909L2.12004 13.3478ZM10.6368 16.7046C10.4951 16.7398 10.3497 16.7701 10.2043 16.7973C10.1839 16.8013 10.1632 16.8047 10.1429 16.8084C10.0191 16.8306 9.89385 16.8495 9.76837 16.865C9.7349 16.8693 9.70168 16.8738 9.66835 16.8779C9.55183 16.8914 9.43425 16.9016 9.31638 16.9101C9.2793 16.9126 9.24265 16.9163 9.20556 16.9187C9.0549 16.9279 8.903 16.9333 8.75 16.9333C8.60986 16.9333 8.47056 16.9296 8.33208 16.9222C8.31533 16.9222 8.29925 16.9195 8.2825 16.9182C8.15925 16.9112 8.03653 16.902 7.9141 16.89L7.9 16.8874C7.63172 16.8583 7.36506 16.8158 7.10104 16.76L5.42512 14.1359L6.77609 12.3346H10.7239L12.097 14.1479L10.6368 16.7046ZM16.4981 10.7C16.4952 10.7136 16.4919 10.7267 16.489 10.7403C16.4574 10.8798 16.4221 11.0185 16.3832 11.1561L16.368 11.21C16.3259 11.3555 16.2795 11.4998 16.2291 11.6427V11.6454C16.1227 11.9455 15.9981 12.2388 15.856 12.5238L15.8537 12.5281C15.7861 12.6635 15.7146 12.7968 15.6392 12.9281L15.6208 12.9599C15.5455 13.0917 15.466 13.2209 15.3823 13.3475L12.5869 13.7883L11.2048 11.9636L12.0397 8.62341L14.9179 7.66412L16.6476 9.73975C16.6176 10.0626 16.5677 10.3833 16.4981 10.7Z" fill="white"/>
</g>
<defs>
<clipPath id="clip0_8303_890">
<rect width="17" height="17" fill="white" transform="translate(0.25 0.5)"/>
</clipPath>
</defs>
</svg>
