<svg width="20" height="20" viewBox="0 0 20 20" fill="none" xmlns="http://www.w3.org/2000/svg">
<path d="M0.25 11C0.25 8.37665 2.37665 6.25 5 6.25L5.5 6.25C5.91421 6.25 6.25 6.58579 6.25 7C6.25 7.41421 5.91421 7.75 5.5 7.75L5 7.75C3.20507 7.75 1.75 9.20507 1.75 11L1.75 15C1.75 16.7949 3.20507 18.25 5 18.25L15 18.25C16.7949 18.25 18.25 16.7949 18.25 15L18.25 11C18.25 9.20507 16.7949 7.75 15 7.75L14.5 7.75C14.0858 7.75 13.75 7.41421 13.75 7C13.75 6.58579 14.0858 6.25 14.5 6.25L15 6.25C17.6234 6.25 19.75 8.37665 19.75 11L19.75 15C19.75 17.6234 17.6234 19.75 15 19.75L5 19.75C2.37665 19.75 0.25 17.6234 0.25 15L0.25 11ZM6.46973 10.5303C6.17683 10.2374 6.17683 9.76262 6.46973 9.46973C6.76262 9.17683 7.23738 9.17683 7.53027 9.46973L9.25 11.1895L9.25 1C9.25 0.585786 9.58579 0.25 10 0.25C10.4142 0.25 10.75 0.585786 10.75 1L10.75 11.1895L12.4697 9.46973C12.7626 9.17683 13.2374 9.17683 13.5303 9.46973C13.8232 9.76262 13.8232 10.2374 13.5303 10.5303L10.5303 13.5303C10.2374 13.8232 9.76262 13.8232 9.46973 13.5303L6.46973 10.5303Z" fill="white"/>
</svg>
