<svg width="18" height="18" viewBox="0 0 18 18" fill="none" xmlns="http://www.w3.org/2000/svg">
<g clip-path="url(#clip0_8303_935)">
<path d="M9.25 0.5C4.55563 0.5 0.75 4.30563 0.75 9C0.75 13.6944 4.55563 17.5 9.25 17.5C13.9444 17.5 17.75 13.6944 17.75 9C17.7448 4.30786 13.9421 0.505242 9.25 0.5ZM9.55338 2.95051L12.5083 1.76933C12.8437 1.9211 13.1681 2.09597 13.4792 2.29269L13.487 2.29754C13.7928 2.49125 14.085 2.70554 14.3616 2.93893L14.3854 2.95965C14.5094 3.06531 14.6301 3.1747 14.7475 3.28768C14.7623 3.3022 14.7778 3.31601 14.7926 3.33085C14.9155 3.4509 15.0347 3.57472 15.1499 3.70216C15.1595 3.71296 15.1686 3.7243 15.1781 3.7351C15.2793 3.8484 15.3765 3.9657 15.4709 4.08498C15.4936 4.11331 15.5163 4.14168 15.5383 4.17005C15.6406 4.30258 15.7397 4.43745 15.8332 4.57664L15.2441 7.08074L12.3459 8.0469L9.55409 5.81307L9.55338 2.95051ZM2.96145 4.17168C2.98345 4.14335 3.00586 4.11501 3.02857 4.08675C3.12171 3.96862 3.21817 3.85315 3.31785 3.74048C3.32865 3.72858 3.3386 3.7164 3.34926 3.7045C3.46373 3.57685 3.58243 3.45306 3.70517 3.33333C3.7193 3.31952 3.73339 3.305 3.7482 3.29225C3.86459 3.17999 3.98431 3.07125 4.10722 2.96617L4.13555 2.94237C4.40973 2.7107 4.69917 2.49772 5.00191 2.30487L5.01296 2.29779C5.32226 2.10152 5.64474 1.92685 5.9781 1.775L8.94662 2.95051V5.81222L6.15465 8.0457L3.25644 7.0813L2.66735 4.5772C2.76127 4.43909 2.85935 4.30386 2.96145 4.17168ZM2.62004 13.3478C2.53667 13.2207 2.457 13.0913 2.38111 12.9596L2.3627 12.9278C2.28717 12.7967 2.21565 12.6633 2.14825 12.5278L2.14591 12.5236C2.00394 12.2386 1.87934 11.9452 1.7728 11.6452V11.6424C1.72244 11.5007 1.6765 11.3556 1.63404 11.2097L1.61866 11.1558C1.57964 11.0182 1.5444 10.8795 1.51298 10.74C1.51022 10.7263 1.50675 10.7133 1.50399 10.6997C1.43441 10.3832 1.38441 10.0627 1.35428 9.74003L3.08403 7.6644L5.9622 8.6237L6.79754 11.9648L5.425 13.7909L2.62004 13.3478ZM11.1368 16.7046C10.9951 16.7398 10.8497 16.7701 10.7043 16.7973C10.6839 16.8013 10.6632 16.8047 10.6429 16.8084C10.5191 16.8306 10.3939 16.8495 10.2684 16.865C10.2349 16.8693 10.2017 16.8738 10.1684 16.8779C10.0518 16.8914 9.93425 16.9016 9.81638 16.9101C9.7793 16.9126 9.74265 16.9163 9.70556 16.9187C9.5549 16.9279 9.403 16.9333 9.25 16.9333C9.10986 16.9333 8.97056 16.9296 8.83208 16.9222C8.81533 16.9222 8.79925 16.9195 8.7825 16.9182C8.65925 16.9112 8.53653 16.902 8.4141 16.89L8.4 16.8874C8.13172 16.8583 7.86506 16.8158 7.60104 16.76L5.92512 14.1359L7.27609 12.3346H11.2239L12.597 14.1479L11.1368 16.7046ZM16.9981 10.7C16.9952 10.7136 16.9919 10.7267 16.989 10.7403C16.9574 10.8798 16.9221 11.0185 16.8832 11.1561L16.868 11.21C16.8259 11.3555 16.7795 11.4998 16.7291 11.6427V11.6454C16.6227 11.9455 16.4981 12.2388 16.356 12.5238L16.3537 12.5281C16.2861 12.6635 16.2146 12.7968 16.1392 12.9281L16.1208 12.9599C16.0455 13.0917 15.966 13.2209 15.8823 13.3475L13.0869 13.7883L11.7048 11.9636L12.5397 8.62341L15.4179 7.66412L17.1476 9.73975C17.1176 10.0626 17.0677 10.3833 16.9981 10.7Z" fill="#070707"/>
</g>
<defs>
<clipPath id="clip0_8303_935">
<rect width="17" height="17" fill="white" transform="translate(0.75 0.5)"/>
</clipPath>
</defs>
</svg>
