<svg width="23" height="22" viewBox="0 0 23 22" fill="none" xmlns="http://www.w3.org/2000/svg">
<g clip-path="url(#clip0_8303_939)">
<path d="M11.25 12.3335C8.68021 12.3335 6.42599 14.6114 6.42568 17.1573C6.42538 19.6678 8.69693 21.9822 11.25 21.9822C13.7855 21.9822 16.0747 19.7376 16.0743 17.1573C16.074 14.5766 13.8465 12.3335 11.25 12.3335ZM14.9693 15.2519C15.1732 15.6479 15.312 16.0742 15.3802 16.5144L14.7159 16.0317L14.9693 15.2519ZM14.518 14.5551L14.0746 15.9199L13.017 16.3987L11.5723 15.349V14.0761L12.7173 13.2442C13.4301 13.5123 14.0509 13.9698 14.518 14.5551ZM12.6005 16.8927L12.0846 18.4802H10.4154L9.89954 16.8927L11.25 15.9116L12.6005 16.8927ZM11.25 12.978C11.476 12.978 11.6978 12.9963 11.9142 13.031L11.25 13.5136L10.5858 13.0311C10.8055 12.9958 11.0276 12.9781 11.25 12.978ZM9.78266 13.2442L10.9277 14.0761V15.349L9.48291 16.3987L8.42536 15.9199L7.98193 14.5551C8.44908 13.9698 9.06985 13.5123 9.78266 13.2442ZM7.53067 15.2519L7.78406 16.0317L7.11976 16.5144C7.18803 16.0742 7.32678 15.6479 7.53067 15.2519ZM7.7642 19.4617C7.35802 18.8492 7.10889 18.124 7.07456 17.3439L8.20068 16.5257L9.25823 17.0045L9.81897 18.7304L9.19365 19.4617H7.7642ZM8.29006 20.1062H9.10788L9.36127 20.886C8.96521 20.6844 8.60365 20.4212 8.29006 20.1062ZM12.3632 21.187C12.0087 21.2851 11.6354 21.3377 11.25 21.3377C10.8646 21.3377 10.4914 21.2851 10.1368 21.187L9.70433 19.8561L10.3297 19.1249H12.1703L12.7956 19.8561L12.3632 21.187ZM13.1387 20.886L13.3921 20.1062H14.2099C13.8964 20.4211 13.5348 20.6843 13.1387 20.886ZM14.7358 19.4617H13.3064L12.6811 18.7304L13.2418 17.0045L14.2994 16.5257L15.4255 17.3439C15.3911 18.124 15.142 18.8491 14.7358 19.4617ZM20.4066 1.57487C20.3543 1.54047 20.2931 1.52208 20.2305 1.52197H2.26953C2.20691 1.5221 2.14569 1.54048 2.09336 1.57487C1.89343 1.66652 1.75391 1.86809 1.75391 2.10205V14.606C1.74604 14.8609 2.06418 15.023 2.26571 14.8666L4.30788 13.3813H6.80703C6.98505 13.3813 7.1293 13.2371 7.1293 13.0591C7.1293 12.8811 6.98505 12.7368 6.80703 12.7368H6.22768L6.04395 11.1384H7.56659L7.64651 12.5289C7.64894 12.5712 7.65966 12.6125 7.67807 12.6507C7.69648 12.6888 7.72222 12.7229 7.75381 12.751C7.78541 12.7792 7.82224 12.8009 7.8622 12.8148C7.90217 12.8287 7.94449 12.8346 7.98674 12.8322C8.07207 12.8273 8.15195 12.7887 8.20882 12.7249C8.26568 12.6611 8.29487 12.5773 8.28997 12.492L8.21215 11.1384H9.73694V11.7701C9.73694 11.948 9.88119 12.0923 10.0592 12.0923C10.2372 12.0923 10.3815 11.948 10.3815 11.7701V11.1384H12.1184V11.526C12.1184 11.704 12.2627 11.8483 12.4407 11.8483C12.6187 11.8483 12.763 11.704 12.763 11.526V11.1384H14.2879L14.2101 12.492C14.2074 12.5344 14.2131 12.5769 14.2269 12.6171C14.2407 12.6573 14.2623 12.6944 14.2905 12.7262C14.3186 12.758 14.3528 12.784 14.3911 12.8025C14.4293 12.8211 14.4708 12.8319 14.5132 12.8343C14.5557 12.8368 14.5982 12.8308 14.6383 12.8167C14.6784 12.8027 14.7153 12.7808 14.747 12.7524C14.7786 12.7241 14.8043 12.6897 14.8226 12.6513C14.8409 12.613 14.8514 12.5714 14.8536 12.5289L14.9335 11.1384H16.4561L16.2724 12.7368H15.693C15.5149 12.7368 15.3707 12.8811 15.3707 13.0591C15.3707 13.2371 15.5149 13.3813 15.693 13.3813H18.1921L20.2343 14.8666C20.4358 15.023 20.7539 14.8609 20.746 14.606V2.10205C20.7461 1.86809 20.6066 1.66652 20.4066 1.57487ZM7.2717 6.00791H5.4542L5.27047 4.40947H7.17983L7.2717 6.00791ZM7.05092 2.1665L7.14279 3.76494H5.19639L5.01266 2.1665H7.05092ZM5.06323 8.25088H3.70112L3.42552 6.65244H4.8795L5.06323 8.25088ZM4.80542 6.00791H3.3144L3.0388 4.40947H4.62168L4.80542 6.00791ZM4.36387 2.1665L4.54761 3.76494H2.92768L2.65208 2.1665H4.36387ZM2.39844 13.9731V4.48849L3.85151 12.9163L2.39844 13.9731ZM3.81224 8.89541H5.13731L5.32104 10.4938H4.08784L3.81224 8.89541ZM4.47456 12.7368L4.19896 11.1384H5.39512L5.57886 12.7368H4.47456ZM5.52828 6.65244H7.30873L7.4006 8.25088H5.71202L5.52828 6.65244ZM5.96983 10.4938L5.78609 8.89541H7.43764L7.52951 10.4938H5.96983ZM9.7369 10.4938H8.17507L8.0832 8.89541H9.7369V10.4938ZM9.7369 8.25088H8.04616L7.9543 6.65244H9.7369V8.25088ZM9.7369 6.00791H7.91726L7.82539 4.40947H9.7369V6.00791ZM9.7369 3.76494H7.78835L7.69649 2.1665H9.7369V3.76494ZM12.1184 10.4938H10.3814V8.89541H12.1184V10.4938ZM12.1184 8.25088H10.3814V6.65244H12.1184V8.25088ZM12.1184 6.00791H10.3814V4.40947H12.1184V6.00791ZM12.1184 3.76494H10.3814V2.1665H12.1184V3.76494ZM14.3249 10.4938H12.7629V8.89541H14.4168L14.3249 10.4938ZM14.4538 8.25088H12.7629V6.65244H14.5457L14.4538 8.25088ZM14.5827 6.00791H12.7629V4.40947H14.6746L14.5827 6.00791ZM14.7116 3.76494H12.7629V2.1665H14.8035L14.7116 3.76494ZM18.1361 2.1665H19.8479L19.5723 3.76494H17.9524L18.1361 2.1665ZM17.8783 4.40947H19.4612L19.1856 6.00791H17.6946L17.8783 4.40947ZM19.0745 6.65244L18.7989 8.25088H17.4368L17.6205 6.65244H19.0745ZM15.4491 2.1665H17.4873L17.3036 3.76494H15.3572L15.4491 2.1665ZM15.3202 4.40947H17.2295L17.0458 6.00791H15.2283L15.3202 4.40947ZM16.5302 10.4938H14.9705L15.0624 8.89541H16.7139L16.5302 10.4938ZM15.0994 8.25088L15.1913 6.65244H16.9717L16.788 8.25088H15.0994ZM18.0254 12.7368H16.9211L17.1049 11.1384H18.301L18.0254 12.7368ZM17.179 10.4938L17.3627 8.89541H18.6878L18.4122 10.4938H17.179ZM20.1016 13.9731L18.6485 12.9163L20.1016 4.48849V13.9731ZM20.8535 0.0180664H1.66672C0.897582 0.0180664 0.271141 0.643777 0.270239 1.41279L0.25 15.25C0.249938 15.2923 0.258212 15.3343 0.27435 15.3734C0.290488 15.4125 0.314174 15.4481 0.344055 15.478C0.373937 15.508 0.409428 15.5318 0.448504 15.548C0.487579 15.5643 0.529473 15.5727 0.571793 15.5728C0.657182 15.5728 0.739552 15.5389 0.799975 15.4785C0.860398 15.4182 0.894406 15.3363 0.894532 15.251L0.91477 1.41361C0.915242 0.999473 1.25255 0.662555 1.66672 0.662555H20.8535C21.2681 0.662555 21.6055 0.999902 21.6055 1.41451V15.2504C21.6055 15.4284 21.7497 15.5727 21.9277 15.5727C22.1058 15.5727 22.25 15.4284 22.25 15.2504V1.41451C22.25 0.644508 21.6236 0.0180664 20.8535 0.0180664Z" fill="white"/>
</g>
<defs>
<clipPath id="clip0_8303_939">
<rect width="22" height="22" fill="white" transform="translate(0.25)"/>
</clipPath>
</defs>
</svg>
