<svg width="23" height="22" viewBox="0 0 23 22" fill="none" xmlns="http://www.w3.org/2000/svg">
<g clip-path="url(#clip0_8303_1038)">
<path d="M11.75 12.3335C9.18021 12.3335 6.92599 14.6114 6.92568 17.1573C6.92538 19.6678 9.19693 21.9822 11.75 21.9822C14.2855 21.9822 16.5747 19.7376 16.5743 17.1573C16.574 14.5766 14.3465 12.3335 11.75 12.3335ZM15.4693 15.2519C15.6732 15.6479 15.812 16.0742 15.8802 16.5144L15.2159 16.0317L15.4693 15.2519ZM15.018 14.5551L14.5746 15.9199L13.517 16.3987L12.0723 15.349V14.0761L13.2173 13.2442C13.9301 13.5123 14.5509 13.9698 15.018 14.5551ZM13.1005 16.8927L12.5846 18.4802H10.9154L10.3995 16.8927L11.75 15.9116L13.1005 16.8927ZM11.75 12.978C11.976 12.978 12.1978 12.9963 12.4142 13.031L11.75 13.5136L11.0858 13.0311C11.3055 12.9958 11.5276 12.9781 11.75 12.978ZM10.2827 13.2442L11.4277 14.0761V15.349L9.98291 16.3987L8.92536 15.9199L8.48193 14.5551C8.94908 13.9698 9.56985 13.5123 10.2827 13.2442ZM8.03067 15.2519L8.28406 16.0317L7.61976 16.5144C7.68803 16.0742 7.82678 15.6479 8.03067 15.2519ZM8.2642 19.4617C7.85802 18.8492 7.60889 18.124 7.57456 17.3439L8.70068 16.5257L9.75823 17.0045L10.319 18.7304L9.69365 19.4617H8.2642ZM8.79006 20.1062H9.60788L9.86127 20.886C9.46521 20.6844 9.10365 20.4212 8.79006 20.1062ZM12.8632 21.187C12.5087 21.2851 12.1354 21.3377 11.75 21.3377C11.3646 21.3377 10.9914 21.2851 10.6368 21.187L10.2043 19.8561L10.8297 19.1249H12.6703L13.2956 19.8561L12.8632 21.187ZM13.6387 20.886L13.8921 20.1062H14.7099C14.3964 20.4211 14.0348 20.6843 13.6387 20.886ZM15.2358 19.4617H13.8064L13.1811 18.7304L13.7418 17.0045L14.7994 16.5257L15.9255 17.3439C15.8911 18.124 15.642 18.8491 15.2358 19.4617ZM20.9066 1.57487C20.8543 1.54047 20.7931 1.52208 20.7305 1.52197H2.76953C2.70691 1.5221 2.64569 1.54048 2.59336 1.57487C2.39343 1.66652 2.25391 1.86809 2.25391 2.10205V14.606C2.24604 14.8609 2.56418 15.023 2.76571 14.8666L4.80788 13.3813H7.30703C7.48505 13.3813 7.6293 13.2371 7.6293 13.0591C7.6293 12.8811 7.48505 12.7368 7.30703 12.7368H6.72768L6.54395 11.1384H8.06659L8.14651 12.5289C8.14894 12.5712 8.15966 12.6125 8.17807 12.6507C8.19648 12.6888 8.22222 12.7229 8.25381 12.751C8.28541 12.7792 8.32224 12.8009 8.3622 12.8148C8.40217 12.8287 8.44449 12.8346 8.48674 12.8322C8.57207 12.8273 8.65195 12.7887 8.70882 12.7249C8.76568 12.6611 8.79487 12.5773 8.78997 12.492L8.71215 11.1384H10.2369V11.7701C10.2369 11.948 10.3812 12.0923 10.5592 12.0923C10.7372 12.0923 10.8815 11.948 10.8815 11.7701V11.1384H12.6184V11.526C12.6184 11.704 12.7627 11.8483 12.9407 11.8483C13.1187 11.8483 13.263 11.704 13.263 11.526V11.1384H14.7879L14.7101 12.492C14.7074 12.5344 14.7131 12.5769 14.7269 12.6171C14.7407 12.6573 14.7623 12.6944 14.7905 12.7262C14.8186 12.758 14.8528 12.784 14.8911 12.8025C14.9293 12.8211 14.9708 12.8319 15.0132 12.8343C15.0557 12.8368 15.0982 12.8308 15.1383 12.8167C15.1784 12.8027 15.2153 12.7808 15.247 12.7524C15.2786 12.7241 15.3043 12.6897 15.3226 12.6513C15.3409 12.613 15.3514 12.5714 15.3536 12.5289L15.4335 11.1384H16.9561L16.7724 12.7368H16.193C16.0149 12.7368 15.8707 12.8811 15.8707 13.0591C15.8707 13.2371 16.0149 13.3813 16.193 13.3813H18.6921L20.7343 14.8666C20.9358 15.023 21.2539 14.8609 21.246 14.606V2.10205C21.2461 1.86809 21.1066 1.66652 20.9066 1.57487ZM7.7717 6.00791H5.9542L5.77047 4.40947H7.67983L7.7717 6.00791ZM7.55092 2.1665L7.64279 3.76494H5.69639L5.51266 2.1665H7.55092ZM5.56323 8.25088H4.20112L3.92552 6.65244H5.3795L5.56323 8.25088ZM5.30542 6.00791H3.8144L3.5388 4.40947H5.12168L5.30542 6.00791ZM4.86387 2.1665L5.04761 3.76494H3.42768L3.15208 2.1665H4.86387ZM2.89844 13.9731V4.48849L4.35151 12.9163L2.89844 13.9731ZM4.31224 8.89541H5.63731L5.82104 10.4938H4.58784L4.31224 8.89541ZM4.97456 12.7368L4.69896 11.1384H5.89512L6.07886 12.7368H4.97456ZM6.02828 6.65244H7.80873L7.9006 8.25088H6.21202L6.02828 6.65244ZM6.46983 10.4938L6.28609 8.89541H7.93764L8.02951 10.4938H6.46983ZM10.2369 10.4938H8.67507L8.5832 8.89541H10.2369V10.4938ZM10.2369 8.25088H8.54616L8.4543 6.65244H10.2369V8.25088ZM10.2369 6.00791H8.41726L8.32539 4.40947H10.2369V6.00791ZM10.2369 3.76494H8.28835L8.19649 2.1665H10.2369V3.76494ZM12.6184 10.4938H10.8814V8.89541H12.6184V10.4938ZM12.6184 8.25088H10.8814V6.65244H12.6184V8.25088ZM12.6184 6.00791H10.8814V4.40947H12.6184V6.00791ZM12.6184 3.76494H10.8814V2.1665H12.6184V3.76494ZM14.8249 10.4938H13.2629V8.89541H14.9168L14.8249 10.4938ZM14.9538 8.25088H13.2629V6.65244H15.0457L14.9538 8.25088ZM15.0827 6.00791H13.2629V4.40947H15.1746L15.0827 6.00791ZM15.2116 3.76494H13.2629V2.1665H15.3035L15.2116 3.76494ZM18.6361 2.1665H20.3479L20.0723 3.76494H18.4524L18.6361 2.1665ZM18.3783 4.40947H19.9612L19.6856 6.00791H18.1946L18.3783 4.40947ZM19.5745 6.65244L19.2989 8.25088H17.9368L18.1205 6.65244H19.5745ZM15.9491 2.1665H17.9873L17.8036 3.76494H15.8572L15.9491 2.1665ZM15.8202 4.40947H17.7295L17.5458 6.00791H15.7283L15.8202 4.40947ZM17.0302 10.4938H15.4705L15.5624 8.89541H17.2139L17.0302 10.4938ZM15.5994 8.25088L15.6913 6.65244H17.4717L17.288 8.25088H15.5994ZM18.5254 12.7368H17.4211L17.6049 11.1384H18.801L18.5254 12.7368ZM17.679 10.4938L17.8627 8.89541H19.1878L18.9122 10.4938H17.679ZM20.6016 13.9731L19.1485 12.9163L20.6016 4.48849V13.9731ZM21.3535 0.0180664H2.16672C1.39758 0.0180664 0.771141 0.643777 0.770239 1.41279L0.75 15.25C0.749938 15.2923 0.758212 15.3343 0.77435 15.3734C0.790488 15.4125 0.814174 15.4481 0.844055 15.478C0.873937 15.508 0.909428 15.5318 0.948504 15.548C0.987579 15.5643 1.02947 15.5727 1.07179 15.5728C1.15718 15.5728 1.23955 15.5389 1.29998 15.4785C1.3604 15.4182 1.39441 15.3363 1.39453 15.251L1.41477 1.41361C1.41524 0.999473 1.75255 0.662555 2.16672 0.662555H21.3535C21.7681 0.662555 22.1055 0.999902 22.1055 1.41451V15.2504C22.1055 15.4284 22.2497 15.5727 22.4277 15.5727C22.6058 15.5727 22.75 15.4284 22.75 15.2504V1.41451C22.75 0.644508 22.1236 0.0180664 21.3535 0.0180664Z" fill="#070707"/>
</g>
<defs>
<clipPath id="clip0_8303_1038">
<rect width="22" height="22" fill="white" transform="translate(0.75)"/>
</clipPath>
</defs>
</svg>
