<svg width="44" height="57" viewBox="0 0 44 57" fill="none" xmlns="http://www.w3.org/2000/svg">
<g clip-path="url(#clip0_8398_758)">
<path d="M13.7005 41.6479C13.7005 41.6479 13.701 41.6479 13.7011 41.6479C13.9477 41.6747 14.1891 41.6481 14.4289 41.5983C14.782 41.5247 15.1315 41.4006 15.4883 41.3217C15.8405 41.2438 17.2517 40.115 17.6847 39.7241C18.2414 39.2233 18.6731 38.4807 19.2209 38.028C19.4228 37.8614 19.9167 37.528 20.2456 37.5744C20.5359 37.616 20.7224 38.0588 20.9851 38.0834C21.2274 38.1063 21.7178 37.7488 22.066 37.5744C22.9596 37.1283 23.3016 36.8684 23.9446 36.2745C24.2526 35.9891 24.6247 35.7485 24.7979 35.5385C24.9548 35.349 25.0317 35.0347 25.1954 34.8421C25.2911 34.7295 25.4566 34.707 25.5823 34.7851C26.3527 35.263 27.1825 35.9854 27.9851 36.7263C28.836 37.5113 29.7779 38.2472 30.4317 38.9315C30.6693 39.1816 30.8355 39.6149 31.172 39.6667C31.7284 39.7551 32.1104 39.1539 32.5945 39.0449C33.0136 39.2744 33.425 39.5103 33.7826 39.8C33.9142 39.9065 33.963 40.0854 33.9027 40.243C33.7673 40.5974 33.755 40.9967 33.6752 41.3638C33.4494 42.409 33.2946 43.9416 33.6191 44.9276C33.7211 45.2387 33.9819 45.4674 34.0748 45.776C34.2068 46.2153 34.2142 46.7872 34.302 47.3589C34.4482 48.3235 34.6518 49.4422 34.5857 50.4703C34.5775 50.6028 34.5486 50.7324 34.5122 50.8615C34.4918 50.8486 34.4712 50.8366 34.4503 50.8257C34.3726 50.7847 34.3218 50.8205 34.3101 50.9082C34.3044 50.9505 34.3 50.9941 34.285 51.0335C34.1965 51.2644 34.0963 51.4914 34.0166 51.7252C33.881 52.1233 33.7967 52.5325 33.8087 52.9556C33.8169 53.2439 33.8631 53.5247 34.0226 53.7756C34.0315 53.7896 34.0336 53.8116 34.0307 53.8284C34.0009 53.9993 34.0409 54.0971 34.1995 54.1676C34.3081 54.2158 34.4288 54.237 34.5434 54.2725C34.5684 54.2802 34.6048 54.2939 34.6108 54.3127C34.6365 54.3936 34.6626 54.4766 34.6701 54.5605C34.6798 54.6694 34.7237 54.7323 34.8334 54.746C34.9052 54.755 34.9781 54.7609 35.0503 54.7598C35.24 54.7567 35.3129 54.6848 35.3292 54.4973C35.3384 54.3907 35.4004 54.322 35.498 54.2826C35.5885 54.2462 35.6572 54.2887 35.7205 54.3459C35.8059 54.4228 35.8353 54.5235 35.8529 54.6337C35.8736 54.7627 35.9332 54.824 36.0403 54.8285C36.1536 54.8333 36.2674 54.825 36.3808 54.8219C36.4567 54.8198 36.4905 54.7762 36.5047 54.7057C36.5261 54.5998 36.5548 54.4954 36.5765 54.3896C36.5839 54.3535 36.598 54.3425 36.6345 54.3456C36.9502 54.3711 37.2661 54.395 37.582 54.4196C38.1174 54.4612 38.6525 54.503 39.1879 54.5449C39.2672 54.5512 39.3697 54.5316 39.4194 54.5733C39.4716 54.6172 39.4761 54.7196 39.4963 54.7978C39.5377 54.9581 39.5946 55.0055 39.7588 55.0081C39.7878 55.0085 39.8169 55.0085 39.8459 55.0074C40.0162 55.0013 40.0758 54.9305 40.0501 54.7657C40.0286 54.6282 40.1033 54.5606 40.2636 54.5727C40.4471 54.5865 40.6323 54.5817 40.8112 54.538C40.9959 54.4929 41.1088 54.5481 41.1437 54.7045C41.1479 54.7232 41.1499 54.7424 41.1524 54.7614C41.168 54.873 41.2352 54.9323 41.3486 54.9319C41.38 54.9319 41.4113 54.9278 41.4427 54.9252C41.6298 54.9106 41.6666 54.873 41.6732 54.6848C41.6757 54.616 41.6736 54.5471 41.6736 54.4973C41.9321 54.4474 42.1706 54.4013 42.4125 54.3547C42.4267 54.3835 42.4414 54.4162 42.4589 54.4476C42.4763 54.479 42.4943 54.5107 42.5161 54.5391C42.5699 54.6091 42.6179 54.6226 42.6995 54.5955C42.8565 54.5431 42.9338 54.4476 42.9391 54.2823C42.9409 54.2266 42.9656 54.2131 43.011 54.1967C43.1057 54.1623 43.2027 54.128 43.2888 54.0772C43.413 54.0041 43.4972 53.8924 43.5 53.744C43.5018 53.6492 43.4893 53.5508 43.4635 53.4595C43.3778 53.1571 43.1615 52.992 42.8643 52.9132C42.1465 52.7229 41.4569 52.4513 40.7651 52.1863C40.7498 52.1803 40.7354 52.163 40.7281 52.1474C40.6995 52.0861 40.6468 52.0504 40.5853 52.0519C40.4949 52.054 40.4298 52.0103 40.362 51.9645C40.2779 51.908 40.1824 51.8632 40.1121 51.7933C40.0427 51.7241 39.9691 51.6781 39.8753 51.6704C39.7424 51.6594 39.6125 51.641 39.4892 51.5871C39.443 51.5668 39.3941 51.5524 39.3457 51.537C39.2719 51.5135 39.201 51.4902 39.1632 51.4111C39.1488 51.3809 39.114 51.3585 39.0851 51.3373C38.9736 51.2554 38.8451 51.2146 38.7101 51.1936C38.6545 51.1849 38.6176 51.1644 38.5876 51.1115C38.5399 51.0277 38.4764 50.9553 38.372 50.932C38.3071 50.9175 38.2408 50.9002 38.182 50.8705C37.77 49.9639 38.044 48.0132 38.1156 47.0212C38.2297 45.4259 37.9079 43.2396 38.0584 41.9855C38.0896 41.7284 38.2473 41.1852 38.3373 40.8235C38.3756 40.6694 38.3866 40.5104 38.3799 40.3517C38.3593 39.8681 38.6706 39.4435 38.6829 38.9885C38.7173 37.8913 38.0287 37.6409 37.5457 37.0661C37.4309 36.9283 37.3228 36.7075 37.2049 36.5564C36.9008 36.1708 36.8371 35.9963 36.6353 35.5381C36.5742 35.3992 36.4436 35.229 36.407 35.0857C36.3399 34.8257 36.4372 34.5909 36.3509 34.2936C36.105 33.4542 34.7677 32.7707 34.0749 31.9744C33.8888 31.7606 33.8646 31.5502 33.733 31.4091C33.5849 31.2522 33.3869 31.1378 33.1964 31.0254C32.8925 30.8462 32.6767 30.5466 32.6147 30.2009C32.5586 29.8882 32.3366 29.3678 32.1101 29.0649C31.991 28.9056 31.9347 28.7084 31.9519 28.5107C32.0525 27.3563 31.872 26.2295 31.9675 25.1305C32.036 24.3567 32.3151 23.5839 32.3665 22.7557C32.3978 22.2544 32.3282 21.7495 32.3665 21.2285C32.546 18.7765 34.1465 16.2296 32.7986 14.0265C32.6573 13.7957 32.9199 13.6846 33.1242 13.5066C33.4212 13.2477 33.6253 12.9781 33.7891 12.9143C34.1661 12.768 34.4775 12.1266 34.7005 11.7275C35.2896 10.6624 36.3155 9.98736 37.244 7.70151C37.4486 7.1977 38.3895 6.18719 38.5168 6.12665C38.5499 6.11091 38.9376 5.96637 39.0974 5.92622C39.098 5.92606 39.0987 5.9259 39.0993 5.92573C39.3525 5.86182 39.5836 5.75566 39.8019 5.62975C39.962 5.53708 40.1107 5.42964 40.2681 5.33344C40.3864 5.261 40.5063 5.18889 40.6329 5.12899C40.839 5.03166 41.0502 4.94253 41.261 4.85404C41.3743 4.8065 41.4945 4.77197 41.6065 4.72235C41.7228 4.67063 41.8361 4.61217 41.9445 4.54857C42.0334 4.49606 42.1304 4.4649 42.2294 4.43487C42.2643 4.42427 42.2987 4.41142 42.3306 4.3952C42.4398 4.33979 42.4518 4.24327 42.3929 4.14723C42.3492 4.0756 42.275 4.03593 42.1923 4.01329C41.952 3.94712 41.7175 3.96928 41.4863 4.03674C41.2715 4.09937 41.0749 4.1922 40.8795 4.29033C40.7852 4.33786 40.6761 4.36356 40.5709 4.39118C40.4901 4.41254 40.4048 4.42266 40.3212 4.43551C40.3014 4.43856 40.2789 4.43583 40.259 4.43053C40.1818 4.40997 40.1188 4.36934 40.0659 4.31458C40.0197 4.26704 39.9743 4.2187 39.9252 4.17357C39.8507 4.10499 39.8509 4.0271 39.8814 3.94776C39.9207 3.84642 39.9683 3.7483 40.0087 3.64744C40.0561 3.52988 40.0992 3.41071 40.1454 3.29267C40.1513 3.27741 40.1642 3.26472 40.1732 3.25059C40.2492 3.1303 40.3269 3.01113 40.4004 2.88956C40.4497 2.80749 40.4882 2.71932 40.5407 2.63886C40.5635 2.60385 40.6085 2.58056 40.6452 2.5539C40.773 2.46155 40.9002 2.36776 41.0308 2.27863C41.1028 2.22997 41.1856 2.19383 41.2568 2.14436C41.3173 2.10197 41.3693 2.05009 41.4221 1.99982C41.4365 1.98617 41.443 1.96401 41.448 1.9449C41.4612 1.8919 41.4406 1.85384 41.3809 1.84372C41.321 1.8336 41.2572 1.82959 41.1975 1.83601C40.9786 1.85978 40.7772 1.93189 40.5796 2.01251C40.4418 2.06888 40.3049 2.12734 40.1676 2.185C40.1015 2.21262 40.0575 2.26209 40.0179 2.31316C39.8804 2.49062 39.7453 2.66953 39.607 2.85085C39.6159 2.82949 39.6222 2.8099 39.6318 2.79159C39.7208 2.62071 39.8066 2.44822 39.9016 2.28023C39.9475 2.19849 40.0091 2.12381 40.0669 2.04816C40.1676 1.91615 40.2745 1.78799 40.3713 1.65405C40.4657 1.52332 40.5371 1.38118 40.5892 1.23166C40.6035 1.19007 40.6073 1.14414 40.6098 1.09997C40.6137 1.03188 40.548 0.990601 40.4762 1.01244C40.3877 1.03894 40.3214 1.09467 40.2627 1.15425C40.1128 1.30731 39.9693 1.46566 39.8219 1.62064C39.6996 1.7488 39.5653 1.86636 39.4026 1.97156C39.4078 1.95277 39.4092 1.94169 39.4136 1.93221C39.4611 1.83023 39.5264 1.7374 39.5872 1.64168C39.6402 1.55769 39.6799 1.46646 39.72 1.37621C39.7332 1.34633 39.7337 1.30972 39.7326 1.27647C39.7287 1.16518 39.5973 1.13016 39.5125 1.18108C39.4306 1.23022 39.3719 1.29831 39.3205 1.37075C39.1827 1.56507 39.0378 1.75474 38.8762 1.93382C38.7978 2.0207 38.7246 2.11176 38.6543 2.20395C38.5929 2.28457 38.5688 2.38029 38.5454 2.47488C38.5165 2.5918 38.494 2.71049 38.4687 2.82837C38.4683 2.82997 38.4654 2.8311 38.4549 2.83897C38.4365 2.75835 38.4153 2.68286 38.4029 2.60642C38.3895 2.52274 38.3853 2.43827 38.3751 2.35443C38.363 2.2539 38.3523 2.15304 38.3344 2.05314C38.3206 1.97605 38.2991 1.89897 38.2428 1.8344C38.193 1.77755 38.0947 1.78687 38.0711 1.85351C38.0539 1.90186 38.0425 1.95357 38.0395 2.00464C38.0301 2.15721 38.0266 2.31027 38.0199 2.463C38.0177 2.51359 37.9984 2.64095 37.9946 2.69555C37.9923 2.76332 37.9739 2.90771 37.9739 2.97548C37.9736 3.15262 37.9852 3.33025 37.9726 3.50611C37.9656 3.60391 37.9233 3.69931 37.8911 3.79423C37.8496 3.91645 37.8037 4.03722 37.7572 4.15783C37.7263 4.23765 37.5323 4.62968 37.4978 4.75671C37.4327 4.9989 37.2067 5.0951 36.7825 5.47477C36.7415 5.51138 36.1901 6.10448 35.6204 6.71879C34.7387 7.66939 33.7371 8.50259 32.6447 9.20506C32.6118 9.22642 32.5785 9.24778 32.5455 9.26898C32.3539 9.39329 32.1732 9.53333 31.9944 9.67547C31.9803 9.68639 31.9653 9.69731 31.9493 9.70775C31.5062 9.99474 30.9322 9.60416 31.0263 9.0867C31.058 8.91309 31.0953 8.73225 31.1716 8.55912C31.2708 8.33364 32.0739 7.30065 32.3088 5.50512C32.335 5.30613 32.3471 5.11582 32.3481 4.93466C32.3809 4.98878 32.4072 5.04676 32.4171 5.11341C32.4221 5.14762 32.452 5.18552 32.4814 5.20656C32.5224 5.23643 32.5871 5.28044 32.617 5.26646C32.6599 5.24655 32.6997 5.18199 32.7066 5.13204C32.7259 4.99039 32.7094 4.85372 32.5633 4.78C32.5867 4.72829 32.6108 4.6838 32.6273 4.63674C32.6551 4.55837 32.7013 4.52272 32.7892 4.53974C32.8333 4.54825 32.8808 4.53669 32.9272 4.53396C32.9327 4.5171 32.9329 4.51661 32.9383 4.49975C32.8855 4.45751 32.8322 4.41544 32.7793 4.37288C32.8296 4.35376 32.8776 4.36003 32.9248 4.35842C33.0028 4.35537 33.1014 4.3748 33.1547 4.33546C33.2402 4.27202 33.2961 4.16875 33.4066 4.13069C33.4078 4.13037 33.4069 4.12475 33.4066 4.11013C33.2825 4.03529 33.0991 4.10082 32.9889 3.968C33.1324 3.85654 33.1314 3.85269 32.9191 3.70156C32.9288 3.67699 32.9383 3.65177 32.9579 3.6007C32.887 3.60648 32.8328 3.6113 32.7784 3.61467C32.7443 3.61692 32.7082 3.62479 32.6766 3.61628C32.5833 3.59139 32.492 3.55975 32.3881 3.52683C32.4497 3.4401 32.519 3.34037 32.5911 3.24256C32.6428 3.17238 32.6769 3.10171 32.6491 3.01017C32.642 2.98608 32.6573 2.944 32.6769 2.92521C32.752 2.8531 32.7651 2.78886 32.6871 2.72205C32.6368 2.67885 32.5649 2.6554 32.4987 2.63725C32.4411 2.62167 32.3783 2.62633 32.3477 2.6244C32.2855 2.53415 32.2384 2.46589 32.1841 2.38719C32.2206 2.38559 32.2455 2.38222 32.2699 2.38334C32.4807 2.3949 32.5554 2.3024 32.4904 2.101C32.4819 2.07482 32.4442 2.04174 32.4198 2.04142C32.3944 2.0411 32.3678 2.07579 32.3434 2.09715C32.318 2.11899 32.2983 2.15159 32.2694 2.16412C32.2228 2.18468 32.1715 2.19849 32.1206 2.20459C32.0748 2.20973 32.0249 2.20973 31.9816 2.19672C31.9018 2.17247 31.8261 2.13473 31.7478 2.10566C31.6293 2.06198 31.5985 1.98971 31.6518 1.87504C31.6605 1.8556 31.665 1.83424 31.6754 1.80212C31.6292 1.80517 31.5939 1.81176 31.5602 1.80839C31.5203 1.80421 31.4815 1.7912 31.4422 1.78221C31.4519 1.74398 31.4603 1.70544 31.4716 1.66802C31.4749 1.65597 31.4881 1.6473 31.492 1.63542C31.5046 1.598 31.5151 1.55977 31.5264 1.52171C31.4871 1.51513 31.4442 1.49553 31.4088 1.50453C31.2948 1.53408 31.2446 1.48429 31.2081 1.38375C31.1704 1.28049 31.1156 1.18332 31.062 1.06946C31.0247 1.12037 31.0072 1.16758 30.9747 1.18268C30.934 1.20179 30.8807 1.19473 30.8332 1.19874C30.8335 1.16678 30.8266 1.13257 30.8356 1.10334C30.8545 1.04344 30.8241 1.01999 30.7753 1.02513C30.7096 1.03204 30.6456 1.05243 30.5771 1.06801C30.5713 1.04617 30.5653 1.02481 30.5606 1.00297C30.5254 0.842526 30.4864 0.813779 30.3247 0.818757C30.3024 0.81956 30.2762 0.799325 30.257 0.782943C30.21 0.74215 30.1681 0.696057 30.1206 0.655907C30.0574 0.602587 29.9883 0.555531 29.9259 0.501247C29.875 0.456921 29.8343 0.400871 29.7821 0.358794C29.5786 0.194819 29.37 0.222925 29.2128 0.431225C29.1975 0.451943 29.1818 0.4725 29.1655 0.492414C29.0574 0.625553 29.0331 0.623626 28.9531 0.476836C28.8775 0.337915 28.818 0.313986 28.655 0.342573C28.6327 0.346427 28.5954 0.319286 28.5797 0.29632C28.5164 0.20558 28.3984 0.156596 28.3015 0.190483C28.1977 0.226779 28.1874 0.310131 28.1976 0.40312C28.2053 0.472339 28.1871 0.52855 28.1121 0.561313C28.1043 0.543004 28.0977 0.529032 28.092 0.514577C28.0623 0.438292 28.0247 0.388826 27.9338 0.449534C27.9127 0.463506 27.8665 0.462703 27.8442 0.448731C27.7501 0.389469 27.6629 0.398784 27.5714 0.453067C27.4993 0.495948 27.4483 0.465594 27.4174 0.394287C27.4021 0.358954 27.3899 0.322176 27.3759 0.286362C27.33 0.166874 27.2458 0.0796677 27.1372 0.0165512C27.1125 0.00241819 27.0679 -0.00721792 27.0498 0.00530903C27.0317 0.0181572 27.0264 0.0626439 27.0309 0.0909098C27.0399 0.147281 27.0598 0.201564 27.0744 0.255527C26.9399 0.336952 26.9427 0.336631 26.9698 0.490005C26.9768 0.528068 26.9638 0.585082 26.9412 0.61656C26.8549 0.737975 26.8512 0.750823 26.9561 0.868062C26.9953 0.912067 26.9878 0.941939 26.9448 0.969241C26.9095 0.991725 26.8727 1.01325 26.8336 1.0269C26.7215 1.06592 26.6279 1.02063 26.5322 0.964584C26.4778 0.932624 26.4081 0.906928 26.3472 0.91014C26.2748 0.913673 26.2653 0.972935 26.3198 1.02352C26.344 1.04601 26.3684 1.06785 26.4064 1.10222C26.369 1.10688 26.3535 1.11041 26.3385 1.11009C26.2096 1.10961 26.1645 1.14012 26.1242 1.26009C26.1121 1.29639 26.0979 1.33413 26.0961 1.37187C26.0929 1.44077 26.0585 1.44896 25.9998 1.43932C25.9462 1.43033 25.8862 1.41716 25.8379 1.43242C25.7969 1.44559 25.7524 1.492 25.74 1.53279C25.7313 1.5617 25.7699 1.60828 25.7933 1.64264C25.804 1.65838 25.8293 1.66384 25.8478 1.67428C25.845 1.69034 25.845 1.69034 25.8424 1.7064C25.825 1.70946 25.8074 1.71186 25.7904 1.71636C25.7217 1.73467 25.6529 1.75298 25.5847 1.77321C25.4057 1.82686 25.3598 1.97445 25.4703 2.12124C25.495 2.15432 25.5075 2.20218 25.5104 2.24426C25.5142 2.29694 25.5026 2.3509 25.497 2.41434C25.4719 2.40647 25.4238 2.3941 25.3779 2.37611C25.3211 2.35363 25.2631 2.33018 25.2224 2.39442C25.1817 2.45866 25.2155 2.51054 25.2667 2.55358C25.2992 2.58088 25.3321 2.6077 25.38 2.64705C25.3334 2.65717 25.3087 2.66809 25.2851 2.6668C25.224 2.66295 25.1628 2.64432 25.1028 2.6493C25.0542 2.65347 24.9697 2.67917 24.9676 2.70197C24.9624 2.75305 24.9875 2.81713 25.0209 2.85969C25.0476 2.89357 25.1048 2.90337 25.1486 2.92441C25.2355 2.96616 25.3245 3.00471 25.4084 3.05241C25.4422 3.07152 25.4642 3.11119 25.4915 3.14122C25.4844 3.15021 25.4771 3.15953 25.4703 3.16852C25.4118 3.14604 25.3535 3.12307 25.2945 3.10187C25.195 3.06558 25.0962 3.0251 24.9939 2.99828C24.9626 2.99009 24.9026 3.01194 24.8889 3.03731C24.8745 3.06429 24.8889 3.12179 24.9112 3.14861C24.9489 3.19406 25.0028 3.22602 25.041 3.25637C25.0332 3.29604 25.0175 3.33153 25.0217 3.36462C25.0351 3.47045 25.0296 3.47977 24.9207 3.48298C24.9012 3.48346 24.8816 3.4825 24.8624 3.48491C24.7965 3.49358 24.7794 3.53791 24.8286 3.57324C24.8789 3.60954 24.9469 3.62543 25.0096 3.63941C25.0616 3.65081 25.1171 3.64631 25.171 3.64872C25.0943 3.73705 25.0561 3.83165 25.0951 3.91468C25.1177 3.9619 25.215 3.97458 25.2824 4.00462C25.2832 4.05842 25.2856 4.12812 25.2848 4.19766C25.2848 4.21757 25.2806 4.24118 25.2691 4.25676C25.1951 4.35682 25.2056 4.39199 25.325 4.43166C25.3063 4.5831 25.3548 4.63177 25.5718 4.66597C25.4524 4.75093 25.5374 4.8436 25.5503 4.93305C25.553 4.95136 25.5852 4.97818 25.6047 4.97899C25.6941 4.98252 25.7689 5.00741 25.8358 5.07198C25.8523 5.08804 25.8696 5.10361 25.8864 5.11951C25.888 5.13814 25.8891 5.15693 25.8911 5.17588C25.9024 5.28365 25.9172 5.39318 25.9357 5.50528C25.7644 5.92461 25.6669 6.75942 25.8229 7.25825C25.9137 7.55376 26.269 7.73138 26.3346 7.9938C26.4193 8.33171 26.3635 8.65452 26.2527 8.96095C26.2089 9.08236 26.1055 9.17471 25.9788 9.20153C25.3872 9.32728 25.142 10.0029 24.6275 10.256C24.4166 10.3608 24.1555 10.3272 23.9446 10.4263C23.6638 10.557 23.2183 11.066 22.8065 11.3878C22.1206 11.9241 21.6072 12.2761 21.0995 12.8575C20.9257 13.0553 20.4273 13.8095 20.3018 14.0454C20.0949 14.4391 19.8983 14.7168 19.7944 15.1163C19.7446 15.3079 19.6451 15.4827 19.5081 15.6264C19.1973 15.9524 19.1653 16.4967 18.9357 16.9294C18.6539 17.4637 18.1225 17.9156 18.0375 18.5439C18.0163 18.7008 17.9588 18.8503 17.8655 18.9785C17.1536 19.9598 17.6078 20.0891 15.7263 21.8245C15.6749 21.8717 15.6083 21.9016 15.5382 21.9039C15.2855 21.912 15.1653 22.0518 15.0355 22.1812C14.9486 22.2679 14.8364 22.3258 14.7149 22.3444C14.5465 22.3701 14.5041 22.3417 14.3278 22.5201C14.2145 22.6486 14.2302 22.7915 14.2596 22.9566C14.2678 23.0014 14.2581 23.0827 14.1347 23.2515C14.0631 23.3496 14.0508 23.4811 14.1111 23.5866C14.2008 23.7435 14.1631 23.8931 14.1267 24.124C14.1048 24.2645 14.1495 24.4072 14.2471 24.5114C14.6852 24.9779 15.3697 25.6839 16.2041 25.4133C16.6906 25.2556 17.2803 23.728 17.3669 22.9894C17.3895 22.797 17.5079 22.6288 17.6804 22.5384C18.2029 22.2642 19.0164 21.8009 19.2209 21.5107C19.5927 20.9859 20.274 20.7123 20.5859 20.1576C20.6232 20.0911 20.6948 20.0518 20.7712 20.0491C20.9215 20.0441 21.0175 19.9851 21.1672 19.9794C21.2442 19.9763 21.3172 19.9435 21.3705 19.8883C21.661 19.5877 21.8385 19.1727 22.1647 18.9067C22.1985 18.8794 22.25 18.8969 22.2604 18.939C22.3239 19.1935 22.3517 19.4841 22.3974 19.7563C22.4034 19.7918 22.3997 19.8287 22.3845 19.8615C22.109 20.458 22.3014 21.0803 22.1232 22.0198C21.8944 23.2208 20.9522 24.2393 22.0065 24.716C21.3067 25.2845 20.3383 25.8269 20.0739 26.8276C19.9673 26.9479 18.5675 29.0471 18.3102 29.5429C18.0976 29.9545 17.8872 30.4642 17.6282 30.8428C17.4467 31.1079 17.1303 31.2867 17.0014 31.5228C16.9049 31.6972 16.9222 31.9294 16.8312 32.0871C16.6258 32.4438 16.1852 32.6635 15.9776 32.9921C15.8573 33.181 15.8596 33.4254 15.7491 33.6145C15.6363 33.8118 15.4152 33.9334 15.2945 34.1242C14.8694 34.792 14.676 35.5879 14.1765 36.1857C14.1322 36.2387 14.0544 36.2485 13.997 36.2103C13.5391 35.9054 13.1989 35.4119 12.5627 35.1994C11.8552 34.9606 10.9979 35.0082 10.2853 34.787C10.2895 34.7591 10.2795 34.7224 10.2559 34.6796C10.2301 34.6325 10.202 34.585 10.1861 34.5358C10.0924 34.2464 10.0113 33.9548 9.90788 33.6675C9.73191 33.1784 9.50553 32.7072 9.18946 32.2773C8.97391 31.9843 8.73234 31.7205 8.41853 31.553C8.40124 31.5437 8.38363 31.5221 8.37378 31.503C8.27472 31.3095 8.17082 31.2313 7.98855 31.2494C7.86365 31.262 7.74843 31.3093 7.62805 31.3379C7.60171 31.3442 7.5618 31.3513 7.54306 31.3352C7.46323 31.2663 7.38163 31.1955 7.31474 31.1132C7.22764 31.0064 7.14588 30.9664 7.04489 31.0154C6.97896 31.0471 6.91432 31.0829 6.85534 31.1253C6.70054 31.2371 6.6923 31.3535 6.8143 31.5563C6.88395 31.6717 6.88217 31.7783 6.82998 31.8748C6.78134 31.9644 6.6936 31.9596 6.59971 31.9368C6.47352 31.9061 6.3764 31.8192 6.28203 31.7153C6.17151 31.5939 6.07763 31.565 5.98585 31.6215C5.88841 31.6815 5.80051 31.7555 5.70856 31.8236C5.64716 31.8692 5.65072 31.9338 5.69014 32.0147C5.74928 32.1363 5.80099 32.2607 5.85949 32.3823C5.87952 32.4241 5.87564 32.4433 5.84333 32.4613C5.5633 32.6158 5.28456 32.7721 5.00534 32.9276C4.53173 33.1913 4.05844 33.4551 3.58483 33.7185C3.5147 33.7575 3.44409 33.8364 3.3725 33.8218C3.29769 33.8065 3.21981 33.7031 3.14644 33.634C2.99633 33.4922 2.91457 33.4759 2.77706 33.5671C2.7525 33.5831 2.72858 33.5998 2.70531 33.6177C2.56861 33.7216 2.57055 33.829 2.71113 33.9842C2.81261 34.0964 2.81648 34.196 2.72438 34.2723C2.54405 34.421 2.36404 34.5699 2.18452 34.72C2.08078 34.8068 1.96832 34.7921 1.85003 34.6741C1.83291 34.6571 1.81756 34.6386 1.80156 34.6205C1.70784 34.5138 1.60927 34.4912 1.51555 34.5565C1.4897 34.5745 1.46691 34.597 1.44267 34.6176C1.29822 34.74 1.29498 34.7997 1.42555 34.998C1.47338 35.0705 1.52476 35.1405 1.56079 35.1919C1.38289 35.3917 1.21904 35.5757 1.05228 35.7627C1.01948 35.7411 0.983768 35.7156 0.946604 35.6934C0.909439 35.671 0.871789 35.6483 0.833008 35.6316C0.737834 35.59 0.688388 35.6035 0.640558 35.6783C0.548454 35.8224 0.553463 35.9657 0.668836 36.1391C0.707617 36.1979 0.696952 36.226 0.67126 36.2689C0.617613 36.3585 0.56235 36.4496 0.527771 36.5515C0.477679 36.698 0.48899 36.8618 0.594021 37.0168C0.66108 37.1157 0.74252 37.2103 0.829938 37.2897C1.11982 37.5529 1.41844 37.5996 1.72157 37.5108C2.45372 37.2959 3.47721 37.188 4.24168 37.0653C4.22439 37.0533 4.25848 37.0629 4.24168 37.0653C4.19159 37.1019 4.30987 37.1124 4.24168 37.0653C4.1987 37.0687 4.27933 37.0375 4.24168 37.0653C4.19821 37.0611 4.28224 37.0621 4.24168 37.0653C4.3522 37.0754 4.7022 37.0586 4.81111 37.0905C4.91889 37.1222 5.01277 37.1275 5.09631 37.0818C5.21427 37.0171 5.33498 36.9616 5.47604 36.9466C5.5292 36.9412 5.57994 36.928 5.63116 36.9163C5.70921 36.898 5.78467 36.8816 5.87338 36.9415C5.90715 36.9644 5.95208 36.9677 5.99134 36.973C6.14291 36.9937 6.2788 36.9624 6.40581 36.9065C6.458 36.8835 6.50341 36.8838 6.56643 36.9212C6.66677 36.9805 6.83999 37.1405 7.09837 37.1214C8.02426 37.0513 8.39785 37.9181 8.91929 38.3659C9.61832 38.9652 10.8491 39.4184 11.4808 40.0064C11.6689 40.181 11.8883 40.4587 12.0437 40.6679C11.992 40.595 12.0979 40.7407 12.0437 40.6679C12.2216 40.9186 12.5812 41.2552 12.8764 41.3447C13.1535 41.4289 13.3834 41.6111 13.6997 41.6473L13.7005 41.6479Z" fill="#F7CAB4"/>
<path d="M33.0428 52.666C33.0369 55.0946 31.0569 56.9983 28.6827 57C26.3378 57.0018 24.3349 55.1282 24.3223 52.6901C24.3097 50.2713 26.2646 48.3768 28.5971 48.3333C31.0256 48.2879 33.0367 50.2231 33.043 52.6662L33.0428 52.666ZM29.508 52.4132C29.5038 52.2775 29.4955 52.043 29.4899 51.8084C29.487 51.6841 29.4323 51.5956 29.3215 51.5368C28.9114 51.3194 28.5018 51.1006 28.0928 50.8811C27.9848 50.8231 27.8822 50.8258 27.779 50.8917C27.6715 50.9603 27.5626 51.0264 27.4542 51.0936C27.1803 51.2635 26.9069 51.434 26.6324 51.6028C26.5466 51.6555 26.4813 51.7236 26.4593 51.8225C26.4486 51.8709 26.4483 51.9224 26.4499 51.9722C26.4637 52.403 26.4808 52.8337 26.4923 53.2646C26.4957 53.3931 26.5479 53.4809 26.6619 53.5411C27.1086 53.7771 27.5541 54.0149 27.9984 54.2547C28.0471 54.2809 28.0813 54.2822 28.129 54.2521C28.5425 53.9926 28.9573 53.7353 29.3727 53.479C29.4858 53.4091 29.5395 53.3116 29.5343 53.1796C29.5256 52.957 29.5186 52.7344 29.5075 52.4129L29.508 52.4132ZM30.7283 50.7174C30.6045 50.8177 30.4869 50.9126 30.3694 51.0078C30.1398 51.1938 29.911 51.3809 29.6799 51.5653C29.6353 51.6007 29.617 51.6396 29.6229 51.6949C29.628 51.7448 29.629 51.7952 29.6306 51.8455C29.6456 52.3026 29.6608 52.7595 29.675 53.2166C29.6783 53.3176 29.7188 53.3968 29.805 53.451C30.1445 53.6654 30.484 53.8797 30.8239 54.0931C30.9055 54.1444 30.9878 54.1421 31.0673 54.0864C31.441 53.824 31.8143 53.5609 32.1889 53.2996C32.2317 53.2697 32.2472 53.2371 32.241 53.1854C32.2189 53.0001 32.2006 52.8143 32.1804 52.6288C32.1485 52.3337 32.1139 52.0389 32.085 51.7435C32.0722 51.613 32.0098 51.5224 31.8996 51.454C31.5932 51.2638 31.2893 51.0698 30.9842 50.8774C30.901 50.8249 30.8175 50.7732 30.7286 50.7178L30.7283 50.7174ZM26.4289 53.6386C26.3771 53.6534 26.3312 53.6606 26.2905 53.6791C26.045 53.7902 25.8005 53.9033 25.5564 54.0172C25.4662 54.0592 25.4408 54.1142 25.4662 54.2092C25.4951 54.3178 25.5268 54.4259 25.5575 54.534C25.6685 54.9254 25.7797 55.3168 25.8904 55.7081C25.9028 55.7523 25.9185 55.792 25.9563 55.8239C26.3795 56.1827 26.8552 56.4474 27.3837 56.6192C27.4271 56.6334 27.4608 56.6276 27.4972 56.5996C27.7851 56.3788 28.0745 56.1599 28.3626 55.9392C28.4502 55.8723 28.4759 55.7872 28.4383 55.6844C28.3067 55.3245 28.1741 54.965 28.0403 54.6061C27.9994 54.4964 27.9241 54.4142 27.8212 54.3575C27.7601 54.3239 27.698 54.292 27.6365 54.2592C27.2863 54.0726 26.9365 53.8851 26.5855 53.7001C26.5354 53.6738 26.4797 53.6584 26.4289 53.6388V53.6386ZM25.2902 51.0648C25.3154 51.0788 25.3339 51.0899 25.3529 51.0995C25.641 51.2439 25.93 51.3865 26.2168 51.533C26.3194 51.5853 26.4121 51.5816 26.5091 51.5198C26.7078 51.3932 26.909 51.2705 27.109 51.1462C27.3459 50.9991 27.5825 50.8514 27.8202 50.7054C27.8536 50.6848 27.8722 50.6622 27.8761 50.6212C27.8829 50.5499 27.8971 50.4793 27.9083 50.4084C27.9529 50.1248 27.9979 49.8412 28.0416 49.5574C28.0569 49.4575 28.008 49.3594 27.9191 49.3082C27.89 49.2915 27.8588 49.2781 27.8283 49.264C27.5638 49.1427 27.2984 49.0229 27.0349 48.8996C26.9838 48.8757 26.9429 48.8773 26.8924 48.9007C26.3632 49.1472 25.9106 49.494 25.5236 49.9274C25.4925 49.9621 25.4733 50.0008 25.4654 50.0481C25.4193 50.3217 25.3707 50.5947 25.323 50.8681C25.3117 50.9334 25.3009 50.9988 25.2897 51.0647L25.2902 51.0648ZM30.5098 55.6066C30.5105 55.655 30.5342 55.6895 30.5662 55.721C30.6808 55.8339 30.7945 55.9476 30.9091 56.0607C30.9865 56.1371 30.987 56.1371 31.0763 56.0745C31.5718 55.7277 31.9757 55.2967 32.2839 54.7776C32.4647 54.4731 32.6035 54.1509 32.7024 53.8113C32.7176 53.7591 32.7067 53.7258 32.666 53.6929C32.5951 53.6356 32.5274 53.5741 32.4577 53.5153C32.3687 53.4403 32.3003 53.4367 32.2032 53.5047C31.8508 53.7514 31.4992 53.999 31.1468 54.2459C31.0737 54.2969 31.0204 54.3626 30.9863 54.4445C30.8354 54.807 30.6838 55.1693 30.5331 55.532C30.5231 55.5559 30.5176 55.5817 30.51 55.6066H30.5098ZM32.0877 51.3464C32.156 51.348 32.2016 51.329 32.2472 51.2844C32.3226 51.2103 32.3976 51.1358 32.4718 51.0606C32.5185 51.0134 32.519 51.0073 32.4917 50.9474C32.3419 50.6183 32.1525 50.3138 31.9226 50.0342C31.6335 49.6827 31.2974 49.3832 30.9092 49.1439C30.7662 49.0557 30.614 48.9825 30.4662 48.9023C30.4311 48.8834 30.3988 48.8797 30.3676 48.911C30.2744 49.0046 30.1787 49.0958 30.0874 49.1912C30.0338 49.2473 30.0302 49.3149 30.0677 49.3836C30.0722 49.392 30.0774 49.4002 30.0826 49.4082C30.3049 49.7641 30.5261 50.1206 30.7511 50.4749C30.7809 50.5221 30.8231 50.5673 30.87 50.5973C31.2466 50.8384 31.6254 51.0761 32.0045 51.3133C32.0341 51.3317 32.0704 51.3398 32.0877 51.3464ZM28.6645 56.8219C29.1219 56.8182 29.5581 56.7525 29.9827 56.6152C30.2467 56.5298 30.4999 56.4199 30.7412 56.2833C30.8094 56.2447 30.8125 56.2177 30.7574 56.1622C30.6559 56.0599 30.5534 55.9587 30.4516 55.8569C30.3885 55.7936 30.3127 55.7642 30.223 55.7717C30.1894 55.7745 30.1558 55.7772 30.1223 55.7811C29.9764 55.7979 29.8307 55.8153 29.6849 55.8321C29.3789 55.8675 29.0728 55.9028 28.7668 55.9376C28.6758 55.9481 28.5965 55.9829 28.5239 56.0388C28.2801 56.2262 28.0348 56.4117 27.7901 56.5982C27.7767 56.6083 27.7628 56.6181 27.7509 56.6298C27.7137 56.6669 27.7229 56.7055 27.7735 56.7225C27.7939 56.7294 27.8155 56.7331 27.8367 56.7373C28.1136 56.7928 28.3937 56.8192 28.6645 56.8221V56.8219ZM28.9801 49.2232C28.9801 49.2232 28.9801 49.2237 28.9801 49.2238C29.2279 49.2153 29.476 49.2062 29.7238 49.1983C29.7975 49.1961 29.8596 49.1694 29.9114 49.1185C29.975 49.0562 30.0381 48.9939 30.1012 48.9311C30.1249 48.9073 30.15 48.8843 30.1705 48.8578C30.1983 48.822 30.1897 48.7913 30.1496 48.7698C30.1391 48.7642 30.1275 48.7605 30.1162 48.7565C29.6965 48.6036 29.2628 48.5201 28.8169 48.5043C28.4148 48.4902 28.0185 48.5361 27.629 48.6365C27.5243 48.6635 27.4217 48.6988 27.3181 48.7303C27.2931 48.7379 27.2755 48.7525 27.2726 48.7799C27.2697 48.8076 27.284 48.8252 27.3075 48.837C27.3181 48.8424 27.3288 48.8482 27.3396 48.8532C27.6108 48.9772 27.8818 49.1018 28.1537 49.2243C28.1831 49.2375 28.2183 49.2446 28.2507 49.2438C28.494 49.2383 28.7372 49.2303 28.9804 49.2232H28.9801ZM24.5699 52.8846C24.5214 52.8873 24.5044 52.915 24.5078 52.9668C24.5204 53.1679 24.5494 53.3669 24.5935 53.5631C24.74 54.2147 25.0267 54.7987 25.4536 55.3143C25.4735 55.3383 25.4922 55.3646 25.5166 55.3831C25.5307 55.3937 25.5596 55.3985 25.5737 55.391C25.5884 55.3831 25.5968 55.358 25.6013 55.3389C25.6042 55.3266 25.5958 55.3113 25.5919 55.2975C25.4791 54.899 25.3667 54.5004 25.2529 54.1023C25.2379 54.0498 25.2219 53.9958 25.1955 53.9484C25.0554 53.6971 24.9121 53.4477 24.7698 53.1978C24.7187 53.1082 24.6686 53.0181 24.6156 52.9297C24.6035 52.9093 24.581 52.8952 24.5699 52.8846ZM25.2078 50.5194C25.1991 50.5088 25.1881 50.486 25.17 50.4759C25.1472 50.463 25.1231 50.4743 25.1076 50.4966C25.0981 50.5104 25.0894 50.5247 25.0807 50.539C24.8677 50.8925 24.7139 51.2704 24.6171 51.6705C24.5844 51.805 24.5626 51.9422 24.5382 52.0787C24.5306 52.1213 24.5461 52.1458 24.5763 52.1531C24.6114 52.1616 24.6301 52.141 24.6439 52.1131C24.6471 52.1066 24.6499 52.1001 24.6529 52.0935C24.7993 51.7814 24.9457 51.4695 25.0918 51.1575C25.0999 51.1403 25.108 51.1223 25.1112 51.104C25.1395 50.9416 25.1668 50.7791 25.1941 50.6166C25.1988 50.5883 25.2023 50.5597 25.208 50.5194H25.2078Z" fill="#F7CAB4"/>
</g>
<defs>
<clipPath id="clip0_8398_758">
<rect width="43" height="57" fill="white" transform="translate(0.5)"/>
</clipPath>
</defs>
</svg>
