<svg width="22" height="14" viewBox="0 0 22 14" fill="none" xmlns="http://www.w3.org/2000/svg">
<path d="M4 8.25C4.9665 8.25 5.75 9.0335 5.75 10V12C5.75 12.9665 4.9665 13.75 4 13.75H2C1.0335 13.75 0.25 12.9665 0.25 12V10C0.25 9.0335 1.0335 8.25 2 8.25H4ZM21 12.25C21.4142 12.25 21.75 12.5858 21.75 13C21.75 13.4142 21.4142 13.75 21 13.75H9C8.58579 13.75 8.25 13.4142 8.25 13C8.25 12.5858 8.58579 12.25 9 12.25H21ZM15 8.25C15.4142 8.25 15.75 8.58579 15.75 9C15.75 9.41421 15.4142 9.75 15 9.75H9C8.58579 9.75 8.25 9.41421 8.25 9C8.25 8.58579 8.58579 8.25 9 8.25H15ZM4 0.25C4.9665 0.25 5.75 1.0335 5.75 2V4C5.75 4.9665 4.9665 5.75 4 5.75H2C1.0335 5.75 0.25 4.9665 0.25 4V2C0.25 1.0335 1.0335 0.25 2 0.25H4ZM21 4.25C21.4142 4.25 21.75 4.58579 21.75 5C21.75 5.41421 21.4142 5.75 21 5.75H9C8.58579 5.75 8.25 5.41421 8.25 5C8.25 4.58579 8.58579 4.25 9 4.25H21ZM15 0.25C15.4142 0.25 15.75 0.585786 15.75 1C15.75 1.41421 15.4142 1.75 15 1.75H9C8.58579 1.75 8.25 1.41421 8.25 1C8.25 0.585786 8.58579 0.25 9 0.25H15Z" fill="#4847F1"/>
</svg>
