<svg width="16" height="16" viewBox="0 0 16 16" fill="none" xmlns="http://www.w3.org/2000/svg">
<path d="M3.9999 5.24979C4.41411 5.24979 4.7499 5.58558 4.7499 5.99979V14.1717C4.79646 14.1367 4.84129 14.0978 4.88369 14.0555L6.46962 12.4695C6.76252 12.1766 7.23728 12.1766 7.53017 12.4695C7.82297 12.7624 7.82303 13.2372 7.53017 13.5301L5.94423 15.116C4.87035 16.1896 3.12944 16.1896 2.05556 15.116L0.469623 13.5301C0.176761 13.2372 0.176823 12.7624 0.469623 12.4695C0.762516 12.1766 1.23728 12.1766 1.53017 12.4695L3.11611 14.0555C3.1585 14.0978 3.20333 14.1367 3.2499 14.1717V5.99979C3.2499 5.58558 3.58568 5.24979 3.9999 5.24979ZM10.0556 0.883581C11.1295 -0.190359 12.8703 -0.190361 13.9442 0.883581L15.5302 2.46952C15.8229 2.76242 15.823 3.23722 15.5302 3.53007C15.2373 3.82276 14.7625 3.82276 14.4696 3.53007L12.8837 1.94413C12.8412 1.90169 12.7965 1.86298 12.7499 1.82792V9.99979C12.7497 10.4139 12.414 10.7498 11.9999 10.7498C11.5858 10.7498 11.2501 10.4139 11.2499 9.99979V1.82792C11.2033 1.86298 11.1585 1.90169 11.1161 1.94413L9.53017 3.53007C9.23732 3.82276 8.76248 3.82276 8.46962 3.53007C8.17678 3.23722 8.17688 2.76242 8.46962 2.46952L10.0556 0.883581Z" fill="#4D4CFF"/>
</svg>
