<svg width="16" height="16" viewBox="0 0 16 16" fill="none" xmlns="http://www.w3.org/2000/svg">
<path d="M3.9999 5.25004C4.41411 5.25004 4.7499 5.58582 4.7499 6.00004V14.1719C4.79646 14.1369 4.84129 14.0981 4.88369 14.0557L6.46962 12.4698C6.76252 12.1769 7.23728 12.1769 7.53017 12.4698C7.82297 12.7627 7.82303 13.2374 7.53017 13.5303L5.94423 15.1162C4.87035 16.1899 3.12944 16.1899 2.05556 15.1162L0.469623 13.5303C0.176761 13.2374 0.176823 12.7627 0.469623 12.4698C0.762516 12.1769 1.23728 12.1769 1.53017 12.4698L3.11611 14.0557C3.1585 14.0981 3.20333 14.1369 3.2499 14.1719V6.00004C3.2499 5.58582 3.58568 5.25004 3.9999 5.25004ZM10.0556 0.883825C11.1295 -0.190115 12.8703 -0.190117 13.9442 0.883825L15.5302 2.46976C15.8229 2.76267 15.823 3.23747 15.5302 3.53031C15.2373 3.823 14.7625 3.823 14.4696 3.53031L12.8837 1.94437C12.8412 1.90194 12.7965 1.86322 12.7499 1.82816V10C12.7497 10.4141 12.414 10.75 11.9999 10.75C11.5858 10.75 11.2501 10.4141 11.2499 10V1.82816C11.2033 1.86322 11.1585 1.90194 11.1161 1.94437L9.53017 3.53031C9.23732 3.823 8.76248 3.823 8.46962 3.53031C8.17678 3.23747 8.17688 2.76267 8.46962 2.46976L10.0556 0.883825Z" fill="white"/>
</svg>
