<svg width="95" height="95" viewBox="0 0 95 95" fill="none" xmlns="http://www.w3.org/2000/svg">
<path d="M95 74.0234L83.781 72.3932L78.7637 62.2275V62.2277L78.7635 62.2279L73.7466 72.3932C72.5252 72.571 65.5316 73.587 63.1435 73.9339L67.0539 70.1221L53.5415 68.1589L47.4988 55.9147L41.456 68.1589L27.944 70.1221L31.8542 73.9335L21.2534 72.3932L16.2363 62.2272L16.2354 62.2292L16.2344 62.2311L11.219 72.3934C9.86102 72.5905 1.36673 73.8246 0 74.0234L8.11817 81.9365L6.20174 93.1104L16.2342 87.8356L16.2352 87.8351L16.2361 87.8345L26.2707 93.1104L24.3541 81.9365L32.2093 74.2799L37.7211 79.6527L35.413 93.1099L47.4986 86.7563L59.5841 93.1099L57.2758 79.6529L62.7892 74.2788L70.6453 81.9365L68.7289 93.1104L78.7631 87.8347H78.7633V87.8345L88.7979 93.1104L86.8815 81.9365L95 74.0234ZM22.8661 50.2076V47.3653C22.8661 42.6506 24.1986 38.2418 26.5051 34.4934C25.5444 33.8327 24.5132 33.2807 23.4306 32.8476C25.1208 31.2883 26.182 29.057 26.182 26.5816C26.182 21.88 22.357 18.0549 17.6554 18.0549C12.9539 18.0549 9.12867 21.88 9.12867 26.5816C9.12867 29.0557 10.1886 31.2859 11.8771 32.8449C6.11041 35.1479 2.0231 40.7865 2.0231 47.3655V50.2077H22.8661V50.2076ZM72.1314 47.3653V50.2076H92.9744V47.3653C92.9744 40.7865 88.8873 35.1477 83.1204 32.8448C84.8089 31.2857 85.8689 29.0555 85.8689 26.5814C85.8689 21.8798 82.0438 18.0547 77.3422 18.0547C72.6404 18.0547 68.8155 21.88 68.8155 26.5814C68.8155 29.0568 69.8766 31.2883 71.567 32.8474C70.4844 33.2806 69.4533 33.8326 68.4924 34.4932C70.799 38.2416 72.1314 42.6506 72.1314 47.3653ZM66.4456 47.3653H66.447C66.447 39.2587 61.3556 32.3424 54.1964 29.6364C58.9338 27.1974 62.1836 22.2599 62.1836 16.5745C62.1836 8.47756 55.5959 1.88965 47.4988 1.88965C39.4016 1.88965 32.8139 8.47756 32.8139 16.5745C32.8139 22.2599 36.0637 27.1974 40.8012 29.6364C33.642 32.3424 28.5506 39.2587 28.5506 47.3653V50.2076H66.4456V47.3653Z" fill="white"/>
</svg>
