<svg width="10" height="10" viewBox="0 0 10 10" fill="none" xmlns="http://www.w3.org/2000/svg">
<path fill-rule="evenodd" clip-rule="evenodd" d="M8.97688 8.09361C9.22095 8.33769 9.22095 8.73342 8.97688 8.97749C8.7328 9.22157 8.33707 9.22157 8.09299 8.97749L4.99942 5.88392L1.90585 8.97748C1.66177 9.22156 1.26604 9.22156 1.02196 8.97748C0.777884 8.73341 0.777884 8.33768 1.02196 8.0936L4.11553 5.00003L1.02193 1.90643C0.777848 1.66235 0.777848 1.26662 1.02193 1.02254C1.266 0.778466 1.66173 0.778465 1.90581 1.02254L4.99942 4.11615L8.09303 1.02254C8.33711 0.778458 8.73284 0.778459 8.97691 1.02254C9.22099 1.26661 9.22099 1.66234 8.97691 1.90642L5.8833 5.00003L8.97688 8.09361Z" fill="white"/>
</svg>
