<svg width="24" height="25" viewBox="0 0 24 25" fill="none" xmlns="http://www.w3.org/2000/svg">
<path d="M10.5 22.5H5C3.89542 22.5 2.99999 21.6046 3 20.5L3.00014 4.49998C3.00015 3.39542 3.89558 2.5 5.00014 2.5H17C18.1046 2.5 19 3.39543 19 4.5V11" stroke="white" stroke-width="1.5" stroke-linecap="round" stroke-linejoin="round"/>
<path d="M7 7.5H15M7 11.5H11" stroke="white" stroke-width="1.5" stroke-linecap="round" stroke-linejoin="round"/>
<path d="M18 19L16.5 18.45V16M12 18C12 20.4853 14.0147 22.5 16.5 22.5C18.9853 22.5 21 20.4853 21 18C21 15.5147 18.9853 13.5 16.5 13.5C14.0147 13.5 12 15.5147 12 18Z" stroke="white" stroke-width="1.5" stroke-linecap="round" stroke-linejoin="round"/>
</svg>
