<svg width="20" height="20" viewBox="0 0 20 20" fill="none" xmlns="http://www.w3.org/2000/svg">
<path d="M0.25 11C0.25 8.37665 2.37665 6.25 5 6.25L5.5 6.25C5.91421 6.25 6.25 6.58579 6.25 7C6.25 7.41421 5.91421 7.75 5.5 7.75L5 7.75C3.20507 7.75 1.75 9.20507 1.75 11L1.75 15C1.75 16.7949 3.20507 18.25 5 18.25L15 18.25C16.7949 18.25 18.25 16.7949 18.25 15L18.25 11C18.25 9.20507 16.7949 7.75 15 7.75L14.5 7.75C14.0858 7.75 13.75 7.41421 13.75 7C13.75 6.58579 14.0858 6.25 14.5 6.25L15 6.25C17.6234 6.25 19.75 8.37665 19.75 11L19.75 15C19.75 17.6234 17.6234 19.75 15 19.75L5 19.75C2.37665 19.75 0.25 17.6234 0.25 15L0.25 11ZM6.46973 4.53027C6.17683 4.23738 6.17683 3.76262 6.46973 3.46973L9.46973 0.469726C9.76262 0.176834 10.2374 0.176834 10.5303 0.469726L13.5303 3.46973C13.8232 3.76262 13.8232 4.23738 13.5303 4.53027C13.2374 4.82317 12.7626 4.82317 12.4697 4.53027L10.75 2.81055L10.75 13C10.75 13.4142 10.4142 13.75 10 13.75C9.58579 13.75 9.25 13.4142 9.25 13L9.25 2.81055L7.53027 4.53027C7.23738 4.82317 6.76262 4.82317 6.46973 4.53027Z" fill="white"/>
</svg>
