<svg width="48" height="44" viewBox="0 0 48 44" fill="none" xmlns="http://www.w3.org/2000/svg">
<path d="M45.9279 60.8403C45.6272 57.2525 45.2253 53.5948 44.3481 50.0958C44.1916 49.4617 44.0096 48.8357 43.8015 48.2172C43.5933 47.5987 43.3591 46.9902 43.1001 46.3918C42.8261 45.7589 42.4205 45.0629 42.2149 44.4175C42.1018 44.061 42.0962 43.6695 42.0564 43.2987C42.0105 42.8478 41.9533 42.3982 41.8856 41.9498C41.7427 40.9861 41.5011 40.0355 41.3818 39.07C42.9889 38.2507 44.5538 36.8436 45.8111 35.5535C46.6665 34.6761 48.137 33.0708 48.1009 31.7944C48.0935 31.5199 48.0245 31.2641 47.8841 31.0283C47.4468 30.2942 46.7355 29.6994 46.1286 29.1097C45.3272 28.3311 44.5171 27.5625 43.6983 26.8027C43.7928 26.5476 43.9512 26.2537 43.9375 25.9766C43.9313 25.8528 43.8965 25.7584 43.8008 25.6764C43.4672 25.3894 43.0895 25.183 42.7454 24.9141C42.0577 24.3763 41.4048 23.7778 40.7407 23.21C40.3444 22.871 39.8989 22.549 39.5318 22.1813C39.2349 21.8836 39.0398 21.4702 38.8 21.125C38.4204 20.5903 38.0067 20.0844 37.5588 19.6066C36.9978 19.0144 36.4039 18.4522 35.7013 18.0319C34.6993 17.4328 33.5519 17.1208 32.4511 16.7606C31.0099 16.2884 29.5804 15.8288 28.1044 15.4773C27.5198 14.8551 27.1067 14.2272 26.26 13.9333C25.7183 11.4337 27.3136 9.68264 25.6847 7.04484C25.8059 6.86848 25.8984 6.67087 25.968 6.46825C26.2904 5.52707 26.1625 4.35263 25.7276 3.46836C24.9828 1.95434 23.4949 0.946246 21.9425 0.417184C20.241 -0.163158 18.6798 -0.178166 17.0522 0.637314C16.5683 0.879957 16.0974 1.21078 15.7067 1.58725C14.8413 2.42024 13.9648 3.82794 13.5871 4.97862C13.228 5.00426 12.877 4.98925 12.5198 4.9461C12.175 4.9042 11.0363 4.57964 10.7785 4.72472C10.64 4.80289 10.5642 4.92609 10.53 5.08056C10.4517 5.43639 10.6232 5.87602 10.8096 6.17808C11.4364 7.19242 12.6117 7.5395 13.697 7.79716C13.3187 8.63828 12.6366 9.4056 12.0756 10.1348C11.8843 10.3837 11.637 10.6495 11.5016 10.9346C11.4501 11.0434 11.4178 11.2254 11.4737 11.3361C11.6259 11.6382 12.2471 11.7276 12.5502 11.8051C12.5117 12.0603 12.4682 12.3111 12.408 12.5618C11.9011 12.4693 11.4954 12.4612 10.999 12.6125C10.6648 12.166 10.2766 11.7951 9.77213 11.5519C8.95584 11.1585 8.02463 11.1423 7.17977 11.4537C6.35417 11.7582 5.26765 12.438 4.89305 13.2666C4.67749 13.7438 3.96557 16.9332 4.02334 17.3403C4.06372 17.6254 4.32587 17.8156 4.37495 18.0695C4.41906 18.299 3.86555 18.5685 3.72702 18.7611C3.38969 19.2314 3.49654 19.8724 3.59345 20.4027C3.17723 21.4721 2.75045 22.5265 2.3889 23.6171C1.92733 25.0561 1.53472 26.5138 1.21231 27.9909C0.881817 29.4562 0.569342 30.9058 0.707253 32.4198C0.784285 33.2678 1.09862 33.987 1.30922 34.7962C1.38936 35.1045 1.42414 35.4253 1.47384 35.7392C1.55087 36.2314 1.6745 36.6717 2.10563 36.9718C3.4015 37.8755 8.49179 36.9262 10.0908 36.6004C10.1579 36.7742 10.2163 36.9531 10.2784 37.1288C11.5029 36.6835 12.7186 36.2151 13.925 35.7236C15.3936 35.1364 16.828 34.5404 18.1692 33.6874C19.2855 36.7292 20.5416 39.7166 21.7599 42.7171C22.4935 44.5244 23.1135 46.4199 24.059 48.1315C24.264 48.5024 24.5318 48.8138 24.8411 49.0984C24.725 50.4479 24.4746 51.8068 24.2684 53.1457C23.7503 56.5046 23.116 59.8428 22.5308 63.1904C22.3177 64.4093 22.0226 65.6287 21.8537 66.8526C21.7947 67.2784 21.7729 67.7112 21.7431 68.1402H33.6612C33.9725 66.755 34.3551 65.3823 34.7192 64.0103C34.8291 65.3842 34.9441 66.7631 35.0087 68.1402H46.3485C46.328 67.2415 46.2671 66.3416 46.2205 65.4442C46.1404 63.9058 46.0553 62.3762 45.9267 60.8415L45.9279 60.8403ZM33.6302 18.3427C33.7234 18.349 33.7675 18.3728 33.8402 18.4334C34.1514 18.693 34.4421 19 34.7409 19.2752C35.8641 20.3252 36.9699 21.3927 38.0595 22.4783C39.3821 23.7716 40.7575 25.0029 42.0819 26.2937L41.1998 27.4437L40.9724 27.2349C38.0148 24.5589 35.123 21.8117 32.2977 18.9944C32.7325 18.7499 33.1649 18.5247 33.6302 18.3434V18.3427ZM30.721 25.3281C30.7576 25.7327 30.826 26.1248 30.9198 26.5194C31.5721 27.1367 32.3716 27.6689 33.0947 28.2004C34.2589 29.0684 35.433 29.9227 36.617 30.7632C37.0587 31.0771 37.5228 31.3579 37.9595 31.6775C37.7688 32.1459 37.519 32.5918 37.2581 33.0239C36.9028 32.8219 36.563 32.5868 36.2238 32.3597C35.5647 31.9132 34.9105 31.4586 34.262 30.9958C33.1171 30.1897 31.8398 29.3905 31.0465 28.2036C30.6266 27.5751 30.3657 26.7802 30.2215 26.0423C29.9109 24.4457 30.0296 22.4952 30.9496 21.1131C31.2323 21.2663 31.7292 21.776 31.9957 22.0074C33.1077 22.9767 34.2129 23.9529 35.3118 24.9373L38.8919 28.0678C39.2572 28.3868 39.6498 28.6751 40.0052 29.0053C39.7126 29.4268 39.4324 29.8577 39.1392 30.2791L36.6388 28.4499C36.1039 28.061 35.5585 27.6857 35.0391 27.2761C34.1905 26.6064 33.3351 25.9372 32.4983 25.2531C31.91 24.7722 31.3385 24.2556 30.7241 23.8085C30.6601 24.3056 30.7055 24.8278 30.7216 25.3269L30.721 25.3281ZM26.4122 14.9983L26.9042 15.3366C26.1146 17.2415 23.6428 19.9249 22.2258 21.5609C21.5977 22.2863 20.9914 23.038 20.346 23.7472C20.1913 23.1793 20.126 22.5615 20.0565 21.9768C19.9577 21.3239 19.9471 20.6654 19.9459 20.0068C20.2466 20.7723 20.4329 21.5771 20.7268 22.3439C21.5095 21.2388 22.3985 20.2407 23.2576 19.1989C23.9341 18.3784 24.6249 17.551 25.2561 16.6949C25.6618 16.1452 26.0326 15.5661 26.4128 14.9983H26.4122ZM25.4133 13.897C25.4853 14.1221 25.5357 14.3535 25.5891 14.5837C24.692 16.3416 23.2763 17.8468 22.0289 19.3565C21.7387 19.6885 21.4642 20.0319 21.1896 20.3764C21.0504 19.3852 20.0192 18.2552 19.3216 17.5679C19.5129 17.4103 19.6943 17.2415 19.8664 17.0626C20.0385 16.8838 20.1994 16.6955 20.3497 16.4973C20.9293 15.7375 20.9933 15.2753 20.8473 14.3379C20.7802 13.9083 20.7106 13.4799 20.6553 13.049C21.02 13.1459 21.2411 13.129 21.5959 13.0152C21.64 13.0052 22.3786 13.4205 22.5072 13.4642C23.4633 13.7882 24.4268 13.7863 25.4127 13.8964L25.4133 13.897ZM15.6396 3.34328C16.523 1.90056 17.5076 0.91873 19.1731 0.519119L19.2371 0.520995C19.1923 0.609798 19.0215 0.687969 18.9327 0.748629C18.6811 0.920606 18.4587 1.12948 18.2413 1.34273C16.8889 2.67226 16.2875 4.32198 15.8048 6.11304L14.7574 5.93669C14.6543 5.91917 14.5506 5.89103 14.4487 5.86727C14.7307 4.99175 15.16 4.12562 15.639 3.34328H15.6396ZM12.3844 11.0109C12.8012 10.2117 13.7343 9.67013 13.9393 8.7696C14.4791 8.81838 16.4907 9.16421 16.8311 9.06603C16.9317 9.03664 16.9963 9.00224 17.0454 8.90906C17.0361 8.86904 17.0398 8.87091 17.0125 8.83152C16.646 8.29495 14.7314 8.25055 14.107 8.14549C14.1008 8.0398 14.1375 7.94224 14.1642 7.84093C14.7991 7.90222 15.4315 7.9904 16.0682 8.03605C17.1311 8.11234 18.2071 8.11172 19.2719 8.0867L18.8525 10.3305C19.1632 10.323 19.4744 10.3249 19.785 10.323C20.0987 10.0247 20.3224 9.62511 20.6261 9.31117C20.8373 9.09292 21.1181 8.88592 21.4362 8.89218C21.5915 8.8953 21.722 8.96347 21.822 9.08104C22.0829 9.38747 22.1531 9.84399 22.1195 10.2342C22.0593 10.9303 21.8139 11.7764 21.2654 12.2366C20.9871 12.2492 20.7448 12.2504 20.4895 12.3817C19.7061 12.7857 20.003 14.0577 19.7751 14.7913C19.4818 15.7337 18.7264 16.1708 17.9039 16.5967C17.5486 16.7706 17.1808 16.9107 16.8006 17.0182C16.3484 17.1439 15.6265 17.3453 15.1954 17.0801C14.5121 16.6599 14.4555 15.1421 14.2971 14.4154C14.1965 14.4035 14.094 14.3929 13.9952 14.3723C13.9704 14.3673 13.9461 14.3604 13.9225 14.3529C13.8983 14.3454 13.8753 14.336 13.8523 14.326C13.8293 14.316 13.807 14.3047 13.7852 14.2922C13.7635 14.2797 13.7424 14.2666 13.7212 14.2516C13.7007 14.2372 13.6809 14.2216 13.6622 14.2047C13.643 14.1878 13.625 14.1703 13.6082 14.1521C13.5908 14.134 13.5746 14.1146 13.5597 14.0946C13.5442 14.0746 13.5299 14.054 13.5169 14.0321C13.0994 13.346 13.5951 12.3874 13.7492 11.7145C13.7697 11.6238 13.8008 11.4712 13.7399 11.3905C13.5504 11.141 12.6944 11.0803 12.3862 11.0109H12.3844ZM12.5875 14.0202C12.6534 14.089 12.6751 14.1872 12.708 14.276C12.895 14.7869 13.0963 15.037 13.5535 15.3272C13.5933 16.0258 13.5094 16.7862 13.9933 17.3615C14.8444 18.3734 16.5292 17.7837 17.6474 17.8612C18.4519 17.9169 18.8277 18.314 19.3284 18.8912C19.1451 19.272 19.0029 19.6723 18.8053 20.0469C18.0934 20.4646 17.361 20.7173 16.7131 21.2595C15.8054 22.0187 15.1059 22.973 14.5071 23.9886C14.3251 24.2975 14.1704 24.7265 13.9225 24.9804C13.5858 25.3244 12.6832 25.7865 12.2402 26.0554C11.8122 26.3493 11.3401 26.5995 10.891 26.8596C10.0448 27.3493 9.16582 27.8752 8.25821 28.2379C8.02712 27.0122 7.96375 25.7296 7.88796 24.4857C7.82708 23.4876 7.75316 22.4814 7.74322 21.4815C7.9855 21.2294 8.2197 20.9712 8.32717 20.6285C8.48123 20.1357 8.31288 19.6985 8.08613 19.2658C8.51478 18.6629 9.22608 18.3465 9.71063 17.7949C10.376 17.0376 10.5555 16.0408 11.1519 15.2522C11.5513 14.7237 12.1899 14.5255 12.5881 14.0221L12.5875 14.0202ZM9.18632 12.0991C9.43978 12.2241 10.1915 12.7407 10.2561 13.0134C10.2672 13.0603 10.2256 13.0921 10.2002 13.1284C10.0995 13.1853 10.0188 13.2279 9.90507 13.2504C9.63546 13.1434 8.9751 12.2285 8.76202 11.954C8.9105 11.9865 9.04965 12.0315 9.18632 12.0991ZM7.80721 11.7826C7.83081 11.7951 7.8538 11.8089 7.87678 11.8239C8.17248 12.0203 9.3615 13.7557 9.42673 14.1246C9.36337 14.2122 9.28385 14.2266 9.1857 14.2678C8.9341 13.9389 8.72537 13.5612 8.49366 13.216C8.19609 12.7713 7.86871 12.3648 7.52206 11.959L7.80721 11.7833V11.7826ZM6.91699 12.2961C6.99837 12.3367 7.04497 12.4074 7.1015 12.4762C7.41646 12.857 8.2899 14.094 8.44955 14.5105C8.48993 14.6155 8.50111 14.7456 8.4862 14.8569C8.47316 14.9589 8.43588 15.0364 8.35202 15.0983L8.27995 15.0846L8.211 14.9651C7.74633 14.0196 7.17604 13.2554 6.36721 12.5806L6.91699 12.2954V12.2961ZM6.00193 13.0671C6.40448 13.3492 7.30774 14.7875 7.51275 15.2478C7.34129 15.311 7.18288 15.3529 7.00272 15.3848C6.70081 14.6168 6.14047 14.1966 5.44407 13.8088C5.61118 13.5468 5.79693 13.2998 6.00193 13.0671ZM5.40867 15.1778C6.24607 15.3403 6.11872 15.9907 6.77163 16.1565C7.15927 16.2553 7.55126 16.0695 7.87616 15.8719C8.13086 15.9169 8.3514 15.9701 8.60175 15.8613C8.91174 15.7262 9.03163 15.3998 9.14408 15.1058C9.5634 14.9589 10.0461 14.7913 10.2672 14.3704C10.2592 14.2985 10.2554 14.2353 10.261 14.1634C10.6288 13.735 11.1773 13.4255 11.6898 13.2078C11.7675 13.2341 11.8042 13.3023 11.8445 13.3686C11.8458 13.3836 11.8489 13.3992 11.8489 13.4142C11.8489 13.5111 11.8004 13.5762 11.742 13.6475C11.5985 13.8226 11.4178 13.9583 11.2519 14.1102C10.9462 14.391 10.6505 14.6987 10.4033 15.0333C9.68392 16.0051 9.61372 17.0232 8.5887 17.8331C8.37935 17.9963 8.15571 18.1364 7.91778 18.2539C7.56306 18.4259 6.56352 18.6942 6.35541 18.9875C6.32621 19.0288 6.34236 19.0444 6.3523 19.0894C6.57843 19.252 6.99651 19.2226 7.27047 19.2351C7.27233 19.354 7.26861 19.4584 7.245 19.5753C7.21891 19.5935 7.20835 19.6035 7.17356 19.6116C6.72379 19.7198 5.46147 19.2795 5.02972 19.0744C5.03593 18.9131 5.05892 18.7567 5.08128 18.5973C5.37512 18.6623 5.66088 18.6854 5.96093 18.6842C5.59379 18.1858 5.14589 17.7061 4.85391 17.1608C4.93778 16.5035 5.10116 15.7643 5.41115 15.1784L5.40867 15.1778ZM2.45662 36.232C2.40816 35.5698 2.33237 34.925 2.22863 34.2696C2.13482 33.673 1.99629 33.0614 1.99629 32.4554C1.99629 31.4461 2.2454 30.4186 2.44543 29.4349C2.65168 28.3874 2.87159 27.343 3.10517 26.3012C3.48722 24.5946 3.82331 22.8679 4.25443 21.1732C5.18875 21.7917 5.96217 22.0624 7.08969 21.9486C7.0518 24.4332 7.23692 26.914 7.26115 29.398C7.27979 31.3223 6.81449 33.2371 5.44718 34.6423C5.70747 34.5235 5.96217 34.3934 6.21191 34.2527C7.50778 33.5179 7.91343 32.7744 8.30232 31.3654C8.86453 32.1352 9.20993 33.0908 9.48513 33.9951L9.78021 35.0513C8.08489 35.6805 4.23021 36.6273 2.45662 36.2327V36.232ZM10.4344 30.6212C10.238 30.2041 9.979 29.8208 9.78331 29.403C10.6064 28.9984 14.8425 26.6551 15.3221 26.0329C15.5333 25.759 15.698 25.4213 15.8707 25.1211C16.2999 24.3738 16.7075 23.5915 17.2032 22.8867C17.284 23.1443 16.8628 24.7603 16.8081 25.1374C16.6907 25.9522 16.6267 26.7783 16.5577 27.5982C15.1178 29.0115 12.567 30.468 10.7276 31.2641C10.6226 31.0546 10.5313 30.8351 10.435 30.6212H10.4344ZM12.098 34.481L12.0253 34.4948C11.8582 34.3922 11.537 33.2565 11.4724 33.0133C12.2607 32.6568 13.0193 32.2341 13.7908 31.8432C14.8624 31.301 15.9738 30.7838 16.9603 30.0915L16.9808 30.0959C17.1106 30.2372 17.5076 31.5343 17.5915 31.8101C16.367 32.8369 13.6448 33.9394 12.0986 34.4804L12.098 34.481ZM25.4369 48.5143C25.422 48.5099 25.4071 48.5068 25.3921 48.5011C25.2375 48.4405 25.1635 48.2485 25.0896 48.1096C24.7138 47.2985 24.4485 46.4399 24.1193 45.6094L21.904 39.998C21.0852 37.9424 20.2869 35.8787 19.5086 33.8075C19.0401 32.5273 18.5326 31.2897 18.3369 29.9289C17.9219 27.0391 18.2978 23.891 19.0594 21.0912C19.2048 21.2538 19.2414 24.2275 19.5334 24.8322C19.6129 24.9967 19.7937 25.153 19.9179 25.2862C19.9111 26.9234 19.8825 28.5131 20.1186 30.1403C20.2956 31.3598 20.6063 32.5536 20.9268 33.7412C21.3213 35.2027 21.7493 36.6454 22.1835 38.0944C23.0327 40.9729 23.9354 43.8346 24.8921 46.6794C25.0921 47.2823 25.2704 47.8889 25.4822 48.488L25.4381 48.5136L25.4369 48.5143ZM27.2161 48.8057C27.1396 48.7482 27.1278 48.6681 27.0937 48.5799C26.5048 46.6081 25.8363 44.6614 25.2219 42.6971C24.4734 40.2988 23.7677 37.8874 23.1048 35.4635C22.6097 33.6912 22.0897 31.9089 21.7307 30.1022C21.3654 28.2636 21.1927 26.3568 20.9821 24.4939C21.5424 23.7741 22.1519 23.0574 22.7613 22.3782C22.86 22.6697 22.7762 24.0474 22.7905 24.462C22.8085 24.9904 22.8569 25.522 22.8986 26.0492C23.0085 27.4369 23.2141 28.8252 23.4546 30.196C23.923 32.8669 24.7187 35.4616 25.4325 38.0719C25.9798 40.0899 26.5532 42.1011 27.1515 44.1042C27.6136 45.6632 28.0771 47.2166 28.6306 48.7463C28.1628 48.7713 27.6838 48.8182 27.2161 48.8051V48.8057ZM30.8459 48.5687L30.2967 48.6687L27.6372 39.2432C27.0471 37.1857 26.483 35.1208 25.9457 33.0489C25.6158 31.7782 25.2486 30.5074 24.9803 29.2223C24.4883 26.8671 24.4019 24.5145 24.6299 22.1218C24.7045 21.3414 24.7647 20.3608 25.0629 19.6335C25.1735 19.3633 26.0488 18.6135 26.3072 18.3033C26.5843 17.975 26.8452 17.6336 27.0887 17.2796C27.3322 16.925 27.5577 16.5598 27.7646 16.1827L28.2057 16.3284C28.0373 16.6861 27.8789 17.0476 27.7304 17.4141C26.6725 20.0431 26.119 23.4457 26.2706 26.2793C26.3762 28.2473 26.9353 30.1916 27.4341 32.0877C28.0622 34.4735 28.7424 36.8405 29.4115 39.2144C30.0408 41.4495 30.6328 43.6945 31.3453 45.9046C31.6062 46.7132 31.8479 47.5337 32.1778 48.3173C31.7423 48.4348 31.2907 48.498 30.8459 48.5693V48.5687ZM34.0222 47.9364C33.6401 46.6657 33.1829 45.4174 32.7965 44.1461C31.797 40.7928 30.8297 37.4309 29.8948 34.0589C29.4587 32.4942 28.9636 30.9495 28.5964 29.3661C27.7721 25.8153 27.9671 23.048 28.976 19.5641C29.2239 18.7086 29.5444 17.6179 30.0122 16.8606C30.7278 17.0689 31.4696 17.3384 32.1666 17.6067C31.0943 18.546 30.2222 19.5309 29.5587 20.8086C28.8729 22.1287 28.7138 23.5596 28.9244 25.0229C29.071 26.0404 29.4052 27.1348 29.9519 28.0109C30.142 28.3155 30.452 28.62 30.5539 28.9653C30.7403 29.6013 30.8434 30.2917 30.9987 30.9395L32.238 36.0519C32.9493 38.8317 33.7364 41.5889 34.5987 44.3249C34.8447 45.1291 35.0689 45.9403 35.3212 46.7426L35.5777 47.4386C35.0814 47.6594 34.5446 47.792 34.0234 47.9364H34.0222ZM38.3179 46.3674C37.9601 46.5475 37.6041 46.7276 37.2358 46.8852C36.4033 44.1017 35.7026 41.2712 34.9677 38.4596C34.5782 37.0062 34.2172 35.546 33.8849 34.0783C33.6991 33.294 33.4792 32.5036 33.3525 31.7075C33.6128 31.8207 33.8855 32.0652 34.1284 32.224C34.5527 32.5017 34.9956 32.7525 35.4224 33.0264C35.8908 34.7612 36.3002 36.5109 36.75 38.2507C37.4097 40.8804 38.1185 43.4963 38.877 46.0991L38.3179 46.3674ZM40.9295 44.727L40.4189 45.0735C40.0549 44.3912 39.8946 43.5213 39.7051 42.7746C39.4728 41.8666 39.2467 40.9567 39.0274 40.0455C38.508 37.9962 38.0061 35.9425 37.5221 33.885C37.9228 33.9945 38.3272 34.2008 38.7118 34.3628C38.8783 34.7487 38.9652 35.1889 39.0715 35.596L39.6442 37.8455C40.2133 40.0662 40.9246 42.2337 41.2315 44.5144L40.9302 44.727H40.9295ZM41.1066 37.5534L41.0724 37.4609C40.868 36.5772 40.7227 35.678 40.563 34.7856C40.4593 34.2052 40.3326 33.6286 40.2412 33.0464C40.3736 33.1258 40.5108 33.1952 40.6531 33.2547C41.6085 33.658 42.5745 33.4323 43.4989 33.0527C42.5 32.8663 41.575 32.5311 40.6941 32.0208C41.1507 31.3154 41.6999 30.6594 42.1801 29.9677C42.6416 29.3023 43.0187 28.595 43.3939 27.8784C43.7586 28.1529 44.1021 28.4881 44.4482 28.7876C45.1421 29.3892 46.4684 30.4167 46.9237 31.1409C47.1523 31.5049 47.225 31.9026 47.1194 32.3222C46.6864 34.0432 42.7684 36.6198 41.2613 37.5178C41.188 37.5616 41.1942 37.5741 41.1066 37.5528V37.5534Z" fill="#F7CAB4"/>
</svg>
