<svg width="24" height="24" viewBox="0 0 24 24" fill="none" xmlns="http://www.w3.org/2000/svg">
<path fill-rule="evenodd" clip-rule="evenodd" d="M12.0004 21.5999C17.3023 21.5999 21.6004 17.3018 21.6004 11.9999C21.6004 6.69797 17.3023 2.3999 12.0004 2.3999C6.69846 2.3999 2.40039 6.69797 2.40039 11.9999C2.40039 17.3018 6.69846 21.5999 12.0004 21.5999ZM10.4489 8.75137C9.98029 8.28274 9.22049 8.28274 8.75186 8.75137C8.28323 9.22 8.28323 9.9798 8.75186 10.4484L10.3033 11.9999L8.75186 13.5514C8.28323 14.02 8.28323 14.7798 8.75186 15.2484C9.22049 15.7171 9.98029 15.7171 10.4489 15.2484L12.0004 13.697L13.5519 15.2484C14.0205 15.7171 14.7803 15.7171 15.2489 15.2484C15.7175 14.7798 15.7175 14.02 15.2489 13.5514L13.6974 11.9999L15.2489 10.4484C15.7175 9.9798 15.7175 9.22 15.2489 8.75137C14.7803 8.28274 14.0205 8.28274 13.5519 8.75137L12.0004 10.3028L10.4489 8.75137Z" fill="white"/>
</svg>
